<?xml version="1.0" encoding="utf-8"?>
<svg version="1.1" xmlns:xlink="http://www.w3.org/1999/xlink" width="127px" height="34px" xmlns="http://www.w3.org/2000/svg">
  <g transform="matrix(1 0 0 1 -243 -11 )">
    <path d="M 244 16  A 4 4 0 0 1 248 12 L 365 12  A 4 4 0 0 1 369 16 L 369 40  A 4 4 0 0 1 365 44 L 248 44  A 4 4 0 0 1 244 40 L 244 16  Z " fill-rule="nonzero" fill="#ffffff" stroke="none" />
    <path d="M 243.5 16  A 4.5 4.5 0 0 1 248 11.5 L 365 11.5  A 4.5 4.5 0 0 1 369.5 16 L 369.5 40  A 4.5 4.5 0 0 1 365 44.5 L 248 44.5  A 4.5 4.5 0 0 1 243.5 40 L 243.5 16  Z " stroke-width="1" stroke="#4c4b4b" fill="none" stroke-opacity="0.192156862745098" />
  </g>
</svg>