<?xml version="1.0" encoding="utf-8"?>
<svg version="1.1" xmlns:xlink="http://www.w3.org/1999/xlink" width="10px" height="711px" preserveAspectRatio="xMidYMin meet" viewBox="1070.11764705882 601  8 711" xmlns="http://www.w3.org/2000/svg">
  <path d="M 154 1317  L 154 1312  A 5 5 0 0 1 159 1307 L 1069.11764705882 1307  A 5 5 0 0 0 1074.11764705882 1302 L 1074.11764705882 1100  A 3 3 0 0 0 1077.11764705882 1097 A 3 3 0 0 0 1074.11764705882 1094 L 1074.11764705882 832  A 3 3 0 0 0 1077.11764705882 829 A 3 3 0 0 0 1074.11764705882 826 L 1074.11764705882 606.558823529412  A 0.558823529411825 0.558823529411825 0 0 0 1073.55882352941 606 L 1073 606  " stroke-width="2" stroke="#0099cc" fill="none" />
</svg>