<?xml version="1.0" encoding="utf-8"?>
<svg version="1.1" xmlns:xlink="http://www.w3.org/1999/xlink" width="18px" height="10px" xmlns="http://www.w3.org/2000/svg">
  <g transform="matrix(1 0 0 1 -20 -73 )">
    <path d="M 0.3318569921875 4.0368730078125  L 0.3318569921875 5.9631269921875  L 2.25811099609375 5.9631269921875  L 2.25811099609375 4.03687298828125  L 0.3318569921875 4.0368730078125  Z M 0.3318569921875 7.88938099609375  L 0.3318569921875 9.815635  L 2.25811099609375 9.815635  L 2.25811099609375 7.88938099609375  L 0.3318569921875 7.88938099609375  Z M 0.3318569921875 0.184365  L 0.3318569921875 2.11061900390625  L 2.25811099609375 2.11061900390625  L 2.25811099609375 0.184365  L 0.3318569921875 0.184365  Z M 4.184365 4  L 4.184365 6  L 17.6681430078125 6  L 17.6681430078125 4  L 4.184365 4  Z M 4.184365 7.88938099609375  L 4.184365 9.815635  L 17.6681430078125 9.815635  L 17.6681430078125 7.88938099609375  L 4.184365 7.88938099609375  Z M 17.6681430078125 0.184365  L 4.184365 0.184365  L 4.184365 2.11061900390625  L 17.6681430078125 2.11061900390625  L 17.6681430078125 0.184365  Z " fill-rule="nonzero" fill="#000000" stroke="none" transform="matrix(1 0 0 1 20 73 )" />
  </g>
</svg>