<?xml version="1.0" encoding="utf-8"?>
<svg version="1.1" xmlns:xlink="http://www.w3.org/1999/xlink" width="147px" height="38px" xmlns="http://www.w3.org/2000/svg">
  <g transform="matrix(1 0 0 1 -427 -585 )">
    <path d="M 428 590  A 4 4 0 0 1 432 586 L 569 586  A 4 4 0 0 1 573 590 L 573 618  A 4 4 0 0 1 569 622 L 432 622  A 4 4 0 0 1 428 618 L 428 590  Z " fill-rule="nonzero" fill="#ffffff" stroke="none" />
    <path d="M 427.5 590  A 4.5 4.5 0 0 1 432 585.5 L 569 585.5  A 4.5 4.5 0 0 1 573.5 590 L 573.5 618  A 4.5 4.5 0 0 1 569 622.5 L 432 622.5  A 4.5 4.5 0 0 1 427.5 618 L 427.5 590  Z " stroke-width="1" stroke="#4c4b4b" fill="none" stroke-opacity="0.192156862745098" />
  </g>
</svg>