<?xml version="1.0" encoding="utf-8"?>
<svg version="1.1" xmlns:xlink="http://www.w3.org/1999/xlink" width="3px" height="3px" xmlns="http://www.w3.org/2000/svg">
  <g transform="matrix(1 0 0 1 -1166 -272 )">
    <path d="M 2.90475391113281 1.49874013183594  C 2.90475391113281 2.27481941894531  2.27481941894531 2.90475391113281  1.49874013183594 2.90475391113281  C 0.722660844726563 2.90475391113281  0.0927263525390627 2.27481941894531  0.0927263525390627 1.49874013183594  C 0.0927263525390627 0.722660844726562  0.722660844726563 0.0927263525390627  1.49874013183594 0.0927263525390627  C 2.27481941894531 0.0927263525390627  2.90475391113281 0.722660844726563  2.90475391113281 1.49874013183594  Z M 1.96741139648438 1.49874013183594  C 1.96741139648438 1.24172685058594  1.75827313476562 1.0300688671875  1.49874013183594 1.0300688671875  C 1.24172686523438 1.0300688671875  1.0300688671875 1.24172685058594  1.0300688671875 1.49874013183594  C 1.0300688671875 1.75575341308594  1.24172685058594 1.96741139648438  1.49874013183594 1.96741139648438  C 1.75575341308594 1.96741139648438  1.96741139648438 1.75575341308594  1.96741139648438 1.49874013183594  Z " fill-rule="nonzero" fill="#1e9fff" stroke="none" transform="matrix(1 0 0 1 1166 272 )" />
  </g>
</svg>