<?xml version="1.0" encoding="utf-8"?>
<svg version="1.1" xmlns:xlink="http://www.w3.org/1999/xlink" width="12px" height="12px" xmlns="http://www.w3.org/2000/svg">
  <g transform="matrix(1 0 0 1 -1162 -312 )">
    <path d="M 11.1050911640625 0  C 11.4270865898437 0  11.59920778125 0.380540049945265  11.3861053476563 0.621743904884129  L 7.6849142578125 4.82876053236074  C 7.4437104140625 5.10274935988383  7.3113995625 5.45518799973458  7.3113995625 5.81933555752835  L 7.3113995625 11.6246203924313  C 7.3113995625 11.9641792119979  6.89456184375 12.1292750475727  6.66272513671875 11.8798749582768  L 4.78929718359375 9.87296526737318  C 4.72489809375 9.80388261518119  4.68860042578125 9.71255299428808  4.6886004375 9.61771071324644  L 4.6886004375 5.81933555752835  C 4.6886004375 5.45518799973458  4.5562895859375 5.10274937160258  4.3150857421875 4.82993142298317  L 0.61389465234375 0.621743904884129  C 0.40079221875 0.380540049945265  0.57291341015625 0  0.8949088359375 0  L 11.1050911640625 0  Z " fill-rule="nonzero" fill="#378bfb" stroke="none" transform="matrix(1 0 0 1 1162 312 )" />
  </g>
</svg>