<?xml version="1.0" encoding="utf-8"?>
<svg version="1.1" xmlns:xlink="http://www.w3.org/1999/xlink" width="152px" height="38px" xmlns="http://www.w3.org/2000/svg">
  <g transform="matrix(1 0 0 1 -264 -585 )">
    <path d="M 265 590  A 4 4 0 0 1 269 586 L 411 586  A 4 4 0 0 1 415 590 L 415 618  A 4 4 0 0 1 411 622 L 269 622  A 4 4 0 0 1 265 618 L 265 590  Z " fill-rule="nonzero" fill="#ffffff" stroke="none" />
    <path d="M 264.5 590  A 4.5 4.5 0 0 1 269 585.5 L 411 585.5  A 4.5 4.5 0 0 1 415.5 590 L 415.5 618  A 4.5 4.5 0 0 1 411 622.5 L 269 622.5  A 4.5 4.5 0 0 1 264.5 618 L 264.5 590  Z " stroke-width="1" stroke="#4c4b4b" fill="none" stroke-opacity="0.192156862745098" />
  </g>
</svg>