<?xml version="1.0" encoding="utf-8"?>
<svg version="1.1" xmlns:xlink="http://www.w3.org/1999/xlink" width="7px" height="7px" xmlns="http://www.w3.org/2000/svg">
  <g transform="matrix(1 0 0 1 -1163 -132 )">
    <path d="M 0.838029608130082 3.4669088402439  L 3.23680768292683 6.16662180792683  C 3.37838847642276 6.32595261097561  3.61028743577236 6.32595261097561  3.75186821788618 6.16662180792683  L 6.15065793658537 3.46692195243902  C 6.29221543089431 3.30755183841463  6.24451708943089 3.17708901829268  6.04395109756098 3.17708901829268  L 5.31543029756098 3.17708901829268  C 5.11489924878049 3.17708901829268  4.95122231219512 2.99292625304878  4.95122231219512 2.76711916890244  L 4.95122231219512 1.1274494  C 4.95122231219512 0.901707825609755  4.78768514796748 0.717571271951219  4.58700268292683 0.717571271951219  L 2.40161498699187 0.717571271951219  C 2.2010606504065 0.717571271951219  2.03739535772358 0.901720937804878  2.03739535772358 1.1274494  L 2.03739535772358 2.76710605670732  C 2.03739535772358 2.99291314085366  1.87375336422764 3.17707590609756  1.67316407317073 3.17707590609756  L 0.94466656097561 3.17707590609756  C 0.744123868292683 3.17707590609756  0.696413882926829 3.30753872621951  0.838029608130082 3.4669088402439  Z " fill-rule="nonzero" fill="#4c4b4b" stroke="none" fill-opacity="0.192156862745098" transform="matrix(1 0 0 1 1163 132 )" />
  </g>
</svg>