<?xml version="1.0" encoding="utf-8"?>
<svg version="1.1" xmlns:xlink="http://www.w3.org/1999/xlink" width="14px" height="14px" xmlns="http://www.w3.org/2000/svg">
  <g transform="matrix(1 0 0 1 -1160 -446 )">
    <path d="M 0.95947265625 6.67236328125  C 0.95947265625 6.22265625  1.32275390625 5.859375  1.7724609375 5.859375  L 3.3984375 5.859375  C 3.8466796875 5.859375  4.21142578125 6.22265625  4.21142578125 6.67236328125  L 4.21142578125 9.92431640625  C 4.21142578125 10.37255859375  3.84814453125 10.7373046875  3.3984375 10.7373046875  L 1.7724609375 10.7373046875  C 1.32421875 10.7373046875  0.95947265625 10.3740234375  0.95947265625 9.92431640625  L 0.95947265625 6.67236328125  Z M 5.8359375 3.42041015625  C 5.8359375 2.97216796875  6.20068359375 2.607421875  6.64892578125 2.607421875  L 8.27490234375 2.607421875  C 8.72314453125 2.607421875  9.087890625 2.970703125  9.087890625 3.42041015625  L 9.087890625 9.9228515625  C 9.087890625 10.37109375  8.724609375 10.73583984375  8.27490234375 10.73583984375  L 6.64892578125 10.73583984375  C 6.20068359375 10.73583984375  5.8359375 10.37255859375  5.8359375 9.9228515625  L 5.8359375 3.42041015625  Z M 10.71240234375 1.6787109375  C 10.7138671875 1.294921875  11.0771484375 0.98291015625  11.525390625 0.98291015625  L 13.1513671875 0.98291015625  C 13.599609375 0.98291015625  13.96435546875 1.294921875  13.96435546875 1.68017578125  L 13.96435546875 10.04150390625  C 13.96435546875 10.42529296875  13.599609375 10.7373046875  13.1513671875 10.7373046875  L 11.525390625 10.7373046875  C 11.0771484375 10.7373046875  10.71240234375 10.42529296875  10.71240234375 10.04150390625  L 10.71240234375 1.6787109375  Z M 0.95947265625 12.36181640625  C 0.95947265625 11.912109375  1.32275390625 11.548828125  1.7724609375 11.548828125  L 13.1513671875 11.548828125  C 13.599609375 11.548828125  13.96435546875 11.912109375  13.96435546875 12.36181640625  L 13.96435546875 13.1748046875  C 13.96435546875 13.623046875  13.60107421875 13.98779296875  13.1513671875 14  L 1.7724609375 14  C 1.32421875 13.98779296875  0.95947265625 13.62451171875  0.95947265625 13.1748046875  L 0.95947265625 12.36181640625  Z " fill-rule="nonzero" fill="#1296db" stroke="none" transform="matrix(1 0 0 1 1160 446 )" />
  </g>
</svg>