<?xml version="1.0" encoding="utf-8"?>
<svg version="1.1" xmlns:xlink="http://www.w3.org/1999/xlink" width="10px" height="9px" xmlns="http://www.w3.org/2000/svg">
  <g transform="matrix(1 0 0 1 -1162 -493 )">
    <path d="M 0.5302734375 8.66015625  L 0.5302734375 4.86181640625  L 1.2626953125 4.86181640625  L 1.2626953125 8.66015625  L 0.5302734375 8.66015625  Z M 3.11865234375 8.66015625  L 3.11865234375 3.71630859375  L 3.85107421875 3.71630859375  L 3.85107421875 8.66015625  L 3.11865234375 8.66015625  Z M 5.70556640625 8.66015625  L 5.70556640625 4.86181640625  L 6.43798828125 4.86181640625  L 6.43798828125 8.66015625  L 5.70556640625 8.66015625  Z M 8.2939453125 8.66015625  L 8.2939453125 3.0205078125  L 9.0263671875 3.0205078125  L 9.0263671875 8.66015625  L 8.2939453125 8.66015625  Z M 3.41748046875 1.83544921875  L 0.61669921875 3.84375  L 0.1787109375 3.251953125  L 3.38525390625 0.95361328125  L 6.10693359375 2.6279296875  L 8.78466796875 0.4248046875  L 9.2607421875 0.9873046875  L 6.169921875 3.5302734375  L 3.41748046875 1.83544921875  Z " fill-rule="nonzero" fill="#378bfb" stroke="none" transform="matrix(1 0 0 1 1162 493 )" />
  </g>
</svg>