<?xml version="1.0" encoding="utf-8"?>
<svg version="1.1" xmlns:xlink="http://www.w3.org/1999/xlink" width="15px" height="15px" xmlns="http://www.w3.org/2000/svg">
  <g transform="matrix(1 0 0 1 -267 -328 )">
    <path d="M 8.03990542516593 7.54280973932522  L 8.03990542516593 14.966814159292  L 6.9741421460177 14.966814159292  L 6.9741421460177 7.54280973932522  L 5.17364435359513 8.9829092920354  C 5.07911275801179 9.05851196636874  4.96166983411323 9.09969910432288  4.84062444209071 9.09969910432288  C 4.54615220523108 9.09969910432288  4.30743529111407 8.86098219020586  4.30743529111407 8.56650995334624  C 4.30743529111407 8.40450850874607  4.38108790084121 8.25129366882373  4.50760453058628 8.15011061465708  L 7.17425276548673 6.0170907079646  C 7.36901814174259 5.86153499355184  7.64552721223972 5.86153499355184  7.84029258849557 6.0170907079646  L 10.506940823396 8.15011061465708  C 10.6334574531411 8.25129366882373  10.7071100628682 8.40450850874607  10.7071100628682 8.56650995334624  C 10.7071100628682 8.86098219020586  10.4683931487512 9.09969910432288  10.1739209118916 9.09969910432288  C 10.0528755198691 9.09969910432288  9.93543259597051 9.05851196636874  9.84090100038717 8.9829092920354  L 8.0404032079646 7.54280973932522  Z M 4.30649834551991 11.233407079646  L 5.37325719026549 11.233407079646  L 5.37325719026549 12.3001659243916  L 4.30649834551991 12.3001659243916  C 4.30510984530249 12.3001672800114  4.30372134450853 12.3001679578215  4.30233284362935 12.3001679578215  C 1.9459891867047 12.3001679578215  0.0357952330098805 10.3899740041266  0.0357952330098805 8.033630347202  C 0.0357952330098805 6.2686128032746  1.12260100206207 4.68580485459861  2.76982799153761 4.05182522123894  C 3.15412436940243 1.73481128134837  5.15810776075547 0.0358286810053627  7.50677489419248 0.0358286810053627  C 9.85544202762949 0.0358286810053627  11.8594254189825 1.73481128134837  12.2437217968473 4.05182522123894  C 13.8909487863229 4.68580485459861  14.9777545553751 6.2686128032746  14.9777545553751 8.033630347202  C 14.9777545553751 10.3899740041266  13.0675606016803 12.3001679578215  10.7112169447556 12.3001679578215  C 10.7098284438777 12.3001679578215  10.7084399430812 12.3001672800114  10.707051442865 12.3001659243916  L 9.64029258368363 12.3001659243916  L 9.64029258368363 11.233407079646  L 10.707051442865 11.233407079646  C 10.7078826079056 11.2334077272485  10.7087137731664 11.2334080510498  10.7095449384593 11.2334080510498  C 12.4770088715323 11.2334080510498  13.9098214871319 9.80059543545018  13.9098214871319 8.03313150237719  C 13.9098214871319 6.61133772100909  12.9717881262526 5.36002033671212  11.6070514332411 4.96128318584071  L 11.2576045305863 4.85923673047566  L 11.2252483455199 4.49684734513274  C 11.0525615894867 2.57194764200163  9.4394051182197 1.09703225298651  7.50677489419248 1.09703225298651  C 5.57414467016525 1.09703225298651  3.96098819889823 2.57194764200163  3.78830144286504 4.49684734513274  L 3.75594524336283 4.85923673047566  L 3.40649834070796 4.96128318584071  C 2.04176164767716 5.36002033669914  1.10372828677862 6.61133772100548  1.10372828677862 8.03313150238847  C 1.10372828677862 9.80059543546145  2.53654090237821 11.233408051061  4.30400483545119 11.233408051061  C 4.30483600556845 11.233408051061  4.30566717565495 11.233407727256  4.30649834551991 11.233407079646  Z " fill-rule="nonzero" fill="#ffffff" stroke="none" transform="matrix(1 0 0 1 267 328 )" />
  </g>
</svg>