<?xml version="1.0" encoding="utf-8"?>
<svg version="1.1" xmlns:xlink="http://www.w3.org/1999/xlink" width="18px" height="18px" viewBox="255 180  18 18" xmlns="http://www.w3.org/2000/svg">
  <path d="M 264 180  C 269.04 180  273 183.96  273 189  C 273 194.04  269.04 198  264 198  C 258.96 198  255 194.04  255 189  C 255 183.96  258.96 180  264 180  Z " fill-rule="nonzero" fill="#ffffff" stroke="none" />
  <path d="M 264 180.5  C 268.76 180.5  272.5 184.24  272.5 189  C 272.5 193.76  268.76 197.5  264 197.5  C 259.24 197.5  255.5 193.76  255.5 189  C 255.5 184.24  259.24 180.5  264 180.5  Z " stroke-width="1" stroke="#797979" fill="none" />
  <path d="M 264 193.5  C 261.48 193.5  259.5 191.52  259.5 189  C 259.5 186.48  261.48 184.5  264 184.5  C 266.52 184.5  268.5 186.48  268.5 189  C 268.5 191.52  266.52 193.5  264 193.5  " fill-rule="nonzero" fill="#797979" stroke="none" />
</svg>