<?xml version="1.0" encoding="utf-8"?>
<svg version="1.1" xmlns:xlink="http://www.w3.org/1999/xlink" width="26px" height="18px" xmlns="http://www.w3.org/2000/svg">
  <g transform="matrix(1 0 0 1 -576 -388 )">
    <path d="M 1.01443992000001 8.64377871428571  L 4.52479612 4.88811445714286  L 7.84341012 8.71684611428572  C 7.84341012 8.71684611428572  8.38913789999999 10.6312119428572  10.17381456 8.71684611428572  L 17.07653194 2.56457108571429  C 17.07653194 2.56457108571429  18.72846404 0.387162514285697  22.03232876 2.56457108571429  L 24.61347304 3.93823825714284  C 24.61347304 3.93823825714284  26.85538102 5.29729174285715  22.72555038 4.88811445714286  C 22.72555038 4.88811445714286  19.21519418 3.73364948571429  17.9614955 5.29729174285715  L 9.90832544000001 15.7459299428572  C 9.48002796 16.2247122  8.86524028 16.4987760857143  8.21951962 16.4987760857143  C 7.57379922 16.4987760857143  6.95901128 16.2247122  6.53071405999999 15.7459299428572  L 1.01443992000001 8.64377871428571  Z " fill-rule="nonzero" fill="#fcd9cb" stroke="none" transform="matrix(1 0 0 1 576 388 )" />
  </g>
</svg>