<?xml version="1.0" encoding="utf-8"?>
<svg version="1.1" xmlns:xlink="http://www.w3.org/1999/xlink" width="35px" height="46px" xmlns="http://www.w3.org/2000/svg">
  <defs>
    <linearGradient gradientUnits="userSpaceOnUse" x1="2.68137366255594" y1="23.411126407227" x2="32.9678173571338" y2="23.411126407227" id="LinearGradient82">
      <stop id="Stop83" stop-color="#fdb65b" offset="0" />
      <stop id="Stop84" stop-color="#fd9357" offset="1" />
    </linearGradient>
  </defs>
  <g transform="matrix(1 0 0 1 -550 -383 )">
    <path d="M 7.23274030769231 5.15793508235296  C 8.66157142307692 2.65514489411763  11.7678741923077 1.68868732941177  14.3499781923077 2.94356300000001  C 15.2926708846154 3.85138355294116  16.5749895769231 4.31160516470587  17.8754606153846 4.20885171764704  C 19.1759316538462 4.10609827058822  20.3712508461539 3.45011229411765  21.1617554615385 2.4053475764706  C 24.1137976153846 1.36733214117645  27.3874682307692 2.50632434117649  29.0731915384615 5.15793508235296  L 32.9219983076923 10.2325376470588  C 32.9219983076923 10.2325376470588  31.7459740769231 14.8458124352941  28.3400855769231 15.5070486352941  L 26.3087709230769 13.6771161411765  L 26.9960578461539 41.8949816470588  C 27.0266949615385 43.2770611176471  25.9950729230769 44.4497678  24.6287361923077 44.5860584941176  C 20.6424720384615 44.9858758823529  12.5783053846154 45.385693  6.63709173076922 42.9252796352941  C 5.546212 42.467683  4.88651019230768 41.3397667882353  5.01814923076923 40.1573146  L 7.78256984615385 16.0452640588235  L 2.65082757692307 12.3853990705882  L 7.23274030769231 5.15793508235296  Z " fill-rule="nonzero" fill="url(#LinearGradient82)" stroke="none" transform="matrix(1 0 0 1 550 383 )" />
  </g>
</svg>