<?xml version="1.0" encoding="utf-8"?>
<svg version="1.1" xmlns:xlink="http://www.w3.org/1999/xlink" width="18px" height="16px" xmlns="http://www.w3.org/2000/svg">
  <g transform="matrix(1 0 0 1 -554 -364 )">
    <path d="M 8.94210659999999 6.80687226666669  C 8.86917008571428 6.80687226666669  1.80890974285714 9.03461626666664  1.1962427142857 4.79129466666666  C 1.1962427142857 4.79129466666666  3.23846665714286 6.30676666666667  6.09758022857143 3.92747546666669  C 8.27538531428572 2.06221626666669  11.2676574857143 1.6014576  13.8726187714286 2.73025280000002  C 16.1355972857143 4.53180026666666  17.4360386571429 7.34643520000001  17.3735742857143 10.3076125333333  C 17.2912374 12.8084029333334  15.7383064285714 14.9996496  13.4641740857143 15.8239306666667  C 14.4704841428572 14.4687770666667  14.8784703428571 12.7348213333333  14.5873972285714 11.0501938666667  C 14.1854050285714 10.6634829333333  13.5785962285714 10.6193541333333  13.1286659142857 10.9441109333333  C 13.1286659142857 10.9441109333333  14.4706988571429 6.39769493333332  8.94210659999999 6.80687226666669  Z " fill-rule="nonzero" fill="#666666" stroke="none" transform="matrix(1 0 0 1 554 364 )" />
  </g>
</svg>