<?xml version="1.0" encoding="utf-8"?>
<svg version="1.1" xmlns:xlink="http://www.w3.org/1999/xlink" width="516px" height="55px" xmlns="http://www.w3.org/2000/svg">
  <g transform="matrix(1 0 0 1 -270 -232 )">
    <path d="M 271 237  A 4 4 0 0 1 275 233 L 781 233  A 4 4 0 0 1 785 237 L 785 282  A 4 4 0 0 1 781 286 L 275 286  A 4 4 0 0 1 271 282 L 271 237  Z " fill-rule="nonzero" fill="#ffffff" stroke="none" />
    <path d="M 270.5 237  A 4.5 4.5 0 0 1 275 232.5 L 781 232.5  A 4.5 4.5 0 0 1 785.5 237 L 785.5 282  A 4.5 4.5 0 0 1 781 286.5 L 275 286.5  A 4.5 4.5 0 0 1 270.5 282 L 270.5 237  Z " stroke-width="1" stroke="#4c4b4b" fill="none" stroke-opacity="0.192156862745098" />
  </g>
</svg>