<?xml version="1.0" encoding="utf-8"?>
<svg version="1.1" xmlns:xlink="http://www.w3.org/1999/xlink" width="15px" height="17px" xmlns="http://www.w3.org/2000/svg">
  <g transform="matrix(1 0 0 1 -277 -246 )">
    <path d="M 1.93514499023437 15.997138445173  C 1.93934724609375 15.9184709629604  1.94565067382812 15.8398034807478  1.9498529296875 15.7611360281808  C 1.96035861328125 15.6059272199358  1.96666201171875 15.4507184116909  1.98136995117188 15.2955095738002  C 1.98136995117188 15.2019590576172  2.0023812890625 15.1084085414342  2.01078583007813 15.0148580252511  C 2.02549376953125 14.8745322509766  2.04020170898438 14.7363326328823  2.05701079101563 14.589628390067  C 2.06961758789063 14.4896994349888  2.0885278125 14.3940227626256  2.10323575195312 14.2940938075474  C 2.11794369140625 14.1941648524693  2.141056171875 14.030451449149  2.16416865234375 13.8986302699498  C 2.1872811328125 13.7668090907506  2.20409021484375 13.6860154523577  2.22510155273437 13.5967172188895  C 2.246112890625 13.5074189854213  2.27342765625 13.3415794555664  2.30074239257812 13.2161367152623  C 2.32805712890625 13.0906939749581  2.351169609375 13.0035218976702  2.37428211914062 12.9099713814872  C 2.39739462890625 12.8164208653041  2.43311387695312 12.6633382132394  2.46673204101562 12.5400215994699  C 2.50035020507813 12.4167049857003  2.52556379882812 12.3274067818778  2.55497967773437 12.2338562953404  C 2.58439555664063 12.140305808803  2.6222159765625 11.9936015659877  2.66003642578125 11.8745372645787  C 2.697856875 11.7554729631696  2.72727272460937 11.6619224469866  2.76089088867187 11.5704980573382  C 2.79450905273437 11.4790736676897  2.83863287109375 11.3323694545201  2.880655546875 11.2154313389369  L 2.94999298828125 11.034708745466  C 3.00252134765625 10.8922568150112  3.05715084960938 10.7498048845564  3.11388149414063 10.6094791102818  C 3.14329737304688 10.5350639404297  3.17481439453125 10.4606487409319  3.20633141601563 10.3968642926897  L 3.36181538085938 10.0184099452427  L 3.46687209960938 9.79091209368024  C 3.52570385742187 9.66759550955636  3.58453564453125 9.54427892543247  3.64546854492188 9.42096231166294  L 3.75472754882813 9.20834749407087  C 3.84717747070313 9.02975105678013  3.94172853515625 8.85115461948939  4.04048185546875 8.6768104649135  C 4.13923517578125 8.50034018380301  4.25059532226563 8.32812218540736  4.3472475 8.15590418701172  L 4.43969745117187 8.00707381766183  C 4.52514358398438 7.86533060593378  4.61339123046875 7.72925712425595  4.704440390625 7.59885337262835  L 4.78218237304688 7.47978910086495  L 4.89564366210938 7.32032798025948  C 5.02381286132813 7.13747923060826  5.15408323242188 6.95888279331752  5.2864546875 6.78028635602678  L 5.43983750976563 6.58255457240513  C 5.57851239257813 6.40395813511439  5.72138956054688 6.23174013671875  5.86006444335938 6.0595221383231  C 5.89578372070313 6.01912531912667  5.92940188476563 5.9744762172154  5.96512116210938 5.93407939801897  C 6.14581875 5.72146458042689  6.33071859375 5.52373279680524  6.51982069335938 5.32600104282924  L 6.6669001171875 5.1792968296596  C 6.81608068359375 5.02834030412946  6.96736236328125 4.87950993477958  7.122846328125 4.73493187779018  C 7.19848716796875 4.66264283447266  7.2741280078125 4.59035379115513  7.35187001953125 4.5223170601981  L 7.4863426171875 4.40325275878906  C 7.61661296875 4.28844075985863  7.748984453125 4.17575490722656  7.8834570703125 4.06519520089286  L 7.94649111328125 4.01204150390625  C 8.101975078125 3.88659876360212  8.25745904296875 3.76540833565848  8.41714526367188 3.64634403424944  L 8.54951674804688 3.55066736188616  C 8.66092793166139 3.46796195951554  8.77370474216251 3.38715692295012  8.8877994140625 3.30828647635323  L 9.11051967773438 3.15945610700335  C 9.21347528320313 3.08929321986607  9.32063314453125 3.02338261544364  9.42148760742188 2.94684128941127  L 9.66521920898438 2.80651551513672  C 9.77447821289063 2.74060491071429  9.87533267578125 2.67682049211775  9.99509736328125 2.6151622000558  L 10.2052108007813 2.49184558628627  C 10.3270766015625 2.42593498186384  10.4510435449219 2.3642766898019  10.5750105175781 2.30049227120536  L 10.7641126171875 2.20481559884208  C 10.9392071679688 2.11976966785249  11.1157024804688 2.03897603934152  11.2935985546875 1.96243471330915  L 11.4322734375 1.91353329903739  C 11.5730494628906 1.85400116315569  11.7138254882813 1.79659515380859  11.8525003417969 1.74344145682199  L 12.0184899902344 1.68178316476004  C 12.1781762109375 1.62225102887835  12.3399635742187 1.5669711757115  12.5017509375 1.51381744907924  L 12.5836952050781 1.48830369349888  C 12.7685950488281 1.43089768415179  12.9576971777344 1.37774398716518  13.1467992773438 1.32671641671317  L 13.3022832421875 1.27568887590681  C 13.4472615234375 1.23954436907087  13.5922398046875 1.20552598876953  13.7393192285156 1.17575992082868  L 13.9074099902344 1.1396153843471  C 14.100714375 1.10134472133092  14.2940187597656 1.06732634102958  14.4894242871094 1.03756027308873  L 12.568987265625 0  C 12.3735817382812 0.0297660679408482  12.1865807519531 0.0637844482421875  11.9764672851563 0.102055111258371  L 11.8083765234375 0.138199618094308  C 11.6633982421875 0.167965686035156  11.5184199609375 0.201984066336496  11.3734416503906 0.23812860281808  L 11.2158565722656 0.276399265834263  C 11.0267544433594 0.327426806640625  10.8397534863281 0.38058053327288  10.6527525 0.440112669154576  C 10.6275388769531 0.440112669154576  10.6023252832031 0.457121859305246  10.5771116308594 0.465626424734933  C 10.413223125 0.516653965541295  10.2535369042969 0.571933818708147  10.0938506835937 0.631465984235491  L 9.92786103515625 0.693124276297433  C 9.7849838671875 0.74627797328404  9.64420787109375 0.803683982631138  9.50763413085937 0.863216148158482  L 9.37526264648437 0.918496001325335  C 9.20717188476562 0.990785044642857  9.04328337890625 1.06520021449498  8.87939487304687 1.14386769670759  L 8.84367559570312 1.16087688685826  L 8.656674609375 1.25655352957589  C 8.53270766601562 1.32033797781808  8.40874072265625 1.38199626988002  8.286874921875 1.4500330304827  C 8.21333522460937 1.48830369349888  8.141896640625 1.53082666887556  8.07676145507812 1.57122345842634  C 7.96540130859375 1.63288175048828  7.85404119140625 1.69666619873047  7.7447821875 1.7625768031529  C 7.66914134765625 1.80722590506417  7.59560162109375 1.85400116315569  7.52206192382812 1.90077642124721  L 7.2089928515625 2.11339123883929  L 6.99887938476562 2.26434773472377  L 6.8517999609375 2.3621505632673  L 6.65849557617187 2.5046024937221  L 6.528225234375 2.60027913643973  C 6.36853901367187 2.71934343784877  6.21095390625 2.84053386579241  6.05757108398437 2.96597663574219  L 5.99453704101562 3.0191303327288  C 5.85446139648437 3.1296900390625  5.72208992187499 3.24237589169457  5.5974226171875 3.357187890625  L 5.46294999023437 3.47625216238839  L 5.33057850585937 3.59319033726284  L 5.23182518554687 3.69099313616071  C 5.07844236328125 3.83557122279576  4.92505954101562 3.9844015625  4.77587897460937 4.13535808803013  L 4.63090069335937 4.28206230119978  C 4.42919176757812 4.464911050851  4.24219078125 4.67752583879743  4.0635943359375 4.89014068603516  C 4.05502387423597 4.89987937968116  4.04590372038895 4.90910810678826  4.03627959960937 4.91778059779576  L 3.95643647460937 5.01558342633929  C 3.81145819335937 5.18780142473493  3.67068216796875 5.36001942313058  3.53620954101562 5.53861586042132  L 3.38282671875 5.73634761439732  C 3.24835409179687 5.91494405168806  3.11808375 6.09354048897879  2.99201569335937 6.27638923863002  C 2.96470095703125 6.31253374546596  2.93738619140625 6.3465521257673  2.91217256835937 6.38482281842913  L 2.87855443359375 6.43585035923549  C 2.85123969726562 6.47624717843192  2.82602607421875 6.51664399762835  2.79871130859375 6.55491466064453  C 2.70836252929687 6.69098815220424  2.62221600585937 6.8270616141183  2.53606948242187 6.96313510567801  C 2.5045524609375 7.01203651994978  2.47303543945312 7.06093790457589  2.44361956054687 7.1119654750279  C 2.33856284179687 7.28418347342355  2.23350609375 7.4564014718192  2.1347527734375 7.63499790910993  C 2.04440399414062 7.77532368338449  1.96666201171875 7.92202789655413  1.89102114257812 8.07936286097935  C 1.87421206054687 8.11125508510045  1.85950412109375 8.14314730922154  1.84269506835937 8.17291337716239  L 1.73553717773437 8.38552819475446  C 1.68090767578125 8.5045924961635  1.611570234375 8.62365679757254  1.55483961914062 8.74697335205078  C 1.51912034179687 8.82351467808315  1.48340103515625 8.89792987758092  1.44978287109375 8.97447120361328  C 1.3930522265625 9.09991394391741  1.33842272460937 9.22535668422154  1.28589439453125 9.35292558070591  C 1.25437737304687 9.42521462402344  1.2228603515625 9.49962979387556  1.19344447265625 9.56554039829799  C 1.136713828125 9.70586617257254  1.08208432617187 9.84831810302734  1.02955596679687 9.9907700038365  C 1.00644348632812 10.0503021397182  0.981229863281246 10.1119604614258  0.960218525390621 10.1714925973075  L 0.943409443359371 10.2161417288644  C 0.907690166015621 10.3181968401228  0.874072001953122 10.4287565464565  0.840453837890621 10.5265593453544  C 0.806835673828122 10.6243621442522  0.771116396484372 10.7391741629464  0.737498261718747 10.8305985229492  C 0.703880126953122 10.922022882952  0.668160820312497 11.0708532523019  0.632441513671872 11.1899175537109  C 0.596722207031246 11.30898185512  0.571508613281246 11.402532371303  0.544193876953121 11.4960828874861  C 0.516879140624997 11.5896334036691  0.483260976562497 11.7427160557338  0.453845068359372 11.8660326695033  C 0.424429160156247 11.9893492832729  0.403417851562497 12.0786474870954  0.380305371093747 12.1721979736328  C 0.357192890624996 12.2657484601702  0.327777011718747 12.4252096104213  0.302563388671871 12.5527785069057  C 0.277349765624996 12.6803474033901  0.260540683593746 12.7653933244978  0.243731601562497 12.8546915283203  C 0.226922519531246 12.9439897321429  0.210113437499997 13.1268384817941  0.180697587890622 13.258659690639  C 0.151281738281246 13.3904808994838  0.149180566406246 13.4563914742606  0.136573740234371 13.5541942731585  C 0.117663515624996 13.6923938912528  0.105056718749996 13.8305935389927  0.0903487792968715 13.979423878697  C 0.0903487792968715 14.07297439488  0.0672362988281215 14.1665249110631  0.0588317578124965 14.2600754272461  C 0.0462249609374965 14.4152842354911  0.0378204199218715 14.5704930437361  0.0294158789062465 14.7257018816267  C 0.0294158789062465 14.8043693638393  0.0168090820312465 14.8830368460519  0.0147079394531215 14.9617043282645  C 0 15.189202179827  0 15.4252045968192  0 15.661207043457  L 1.9225381640625 16.7051457850865  C 1.9225381640625 16.4670171822684  1.9225381640625 16.2331408918108  1.93514499023437 15.997138445173  Z " fill-rule="nonzero" fill="#4ca8a2" stroke="none" transform="matrix(1 0 0 1 277 246 )" />
  </g>
</svg>