<?xml version="1.0" encoding="utf-8"?>
<svg version="1.1" xmlns:xlink="http://www.w3.org/1999/xlink" width="21px" height="27px" xmlns="http://www.w3.org/2000/svg">
  <g transform="matrix(1 0 0 1 -279 -248 )">
    <path d="M 15.0383807291667 1.30291356254246  L 15.3795232625326 1.27824809039572  L 16.0638511352539 1.27824809039572  C 16.2027594930013 1.27824809039572  16.3416678222656 1.27824809039572  16.4724050984701 1.28852536090353  L 16.5459448038737 1.28852536090353  C 16.7093663777669 1.28852536090353  16.8707452026367 1.30907993057914  17.03008125 1.32346816087806  L 17.1689895792643 1.33991179942255  L 17.5121749186198 1.38102096743376  L 17.679682019043 1.40774193380605  C 17.783863273112 1.42418560101053  17.883959000651 1.44268470512058  17.9942685587565 1.4632392747962  C 18.0473805745443 1.4632392747962  18.1025353678385 1.48173840756624  18.1556473836263 1.49407114363961  L 18.5110893310547 1.57423398543648  L 18.6152705851237 1.59889948624321  C 18.7684783284505 1.63795318868886  18.9216860432943 1.68111779360564  19.0728510091146 1.72633786408798  L 19.1892888712565 1.76539156653363  C 19.3016412068685 1.80033433784817  19.4139935424805 1.83733257472826  19.5263459065755 1.87844174273947  L 19.6754680948893 1.93393911238961  C 19.7776065714518 1.97299281483526  19.8797450764974 2.01204651728091  19.9818835530599 2.05521112219769  L 20.1207918823242 2.1127639287534  C 20.2501672973633 2.16894644403872  20.376819028049 2.22649926014776  20.5007470743815 2.2854223770805  L 20.5497735351563 2.30803241232167  C 20.6682541748047 2.36558521887738  20.7887775919596 2.4272489565642  20.9052154825846 2.49096815981658  L 20.9174720906576 2.49096815981658  L 19.0483377644857 1.48173840756624  C 18.9278143473307 1.41596376740829  18.8052481526693 1.35224456415591  18.6806392089844 1.29263629203465  L 18.6397838297526 1.27413715926461  C 18.5144939507378 1.21384373195482  18.3878422200521 1.15629091584579  18.2598286376953 1.1014787109375  L 18.120920308431 1.04392590438179  C 18.0187818318685 1.00076129946501  17.9166433268229 0.961707597019361  17.8124620727539 0.922653894573709  L 17.663339855957 0.867156524923573  C 17.5530302978516 0.828102822477921  17.4406779622396 0.789049120032269  17.3262828491211 0.754106348717731  L 17.2118877644857 0.715052646272079  C 17.0607227986654 0.669832575789742  16.9075150838216 0.626667970872962  16.7543073120117 0.58761426842731  L 16.7359223999023 0.58761426842731  L 16.6501260579427 0.569115135657269  C 16.5316454182943 0.540338732379416  16.4131647786458 0.513617766007133  16.2926413614909 0.488952293860394  C 16.2395293457031 0.476619557787024  16.1864173299154 0.468397724184782  16.1333053141276 0.458120425016984  C 16.0270812825521 0.437565855341372  15.9290283325195 0.419066722571331  15.8166759969075 0.402623055366848  L 15.6430405639648 0.353292082413383  L 15.301898030599 0.312182914402174  L 15.1629896728516 0.295739275857676  C 15.0097819580078 0.28135107421875  14.8504459106445 0.264907407014266  14.6870243367513 0.264907407014266  L 13.5124317138672 0.264907407014266  L 13.1610753214518 0.289572879161006  L 13.0017392740885 0.303961109459919  C 12.8321893961589 0.322460242229959  12.6646822672526 0.340959346340014  12.4930896118164 0.36768028405231  L 12.5421160725911 13.7034903171705  L 0.271198103841143 15.5102376995584  C 0.273579428269138 16.2316358122126  0.330945223339344 16.951787680016  0.442790787760413 17.6643574441661  C 0.485688944498694 17.9397887981912  0.538800960286454 18.2131646579908  0.598041280110674 18.4865405464504  C 0.800238270417533 19.3988820324527  1.10522121717275 20.2850331986847  1.50707382405599 21.127803795856  C 1.61942615966796 21.3621259818699  1.7379067993164 21.5902817998471  1.86455852050781 21.8143266866933  C 2.11324327720889 22.2550798356125  2.39171503478256 22.6781290074826  2.69800858154297 23.0804886888587  C 3.58950604610736 24.2685347313972  4.7243558814109 25.2499085954081  6.02568052164713 25.9581295611838  L 7.89277209879557 26.9673593420941  C 6.0293790039464 25.9454768541776  4.51577301662124 24.381636367883  3.54984358317057 22.480295007855  C 3.2468053676293 21.8980733748535  2.99195882719644 21.2917174491339  2.78789045003255 20.6673812574304  C 2.61840366376916 20.1490901123241  2.48194202542684 19.6204495652903  2.37933651529948 19.0846787618886  C 2.22055568997698 18.2389484328913  2.14054091538091 17.3801563051788  2.14033245849609 16.5194674804687  L 14 14.7147755349864  L 14 1.38102096743376  C 14.5399448974609 1.35430002972147  14.7115375528971 1.33580089695143  14.8810874593099 1.31730176418139  L 15.0383807291667 1.30291356254246  Z " fill-rule="nonzero" fill="#3f59f5" stroke="none" transform="matrix(1 0 0 1 279 248 )" />
  </g>
</svg>