<?xml version="1.0" encoding="utf-8"?>
<svg version="1.1" xmlns:xlink="http://www.w3.org/1999/xlink" width="15px" height="8px" xmlns="http://www.w3.org/2000/svg">
  <g transform="matrix(1 0 0 1 -443 -258 )">
    <path d="M 14.7952179854544 1.22506139914773  C 15.0357615966797 1.00169820667614  15.0339380396793 0.642050799005681  14.7921345279091 0.421008913352272  C 14.5497342272307 0.200547336647727  14.1599242907072 0.201677450284091  13.9200106586657 0.424429758522727  L 7.60115761847245 6.29885401278409  L 1.19407761744449 0.4494447265625  C 0.951677316766036 0.228433380681818  0.561867380242599 0.230113263494317  0.321323788291529 0.452865571732954  C 0.0814101562499996 0.676167666903408  0.0832337132504109 1.03581507457386  0.325037205746299 1.25685697798295  L 7.13485780093544 7.47333570667614  C 7.1453349609375 7.48298739346591  7.15889557848479 7.48527814275568  7.16940589021381 7.49434950284091  C 7.17185940712376 7.49660971235795  7.17248934775905 7.49945023082386  7.174942864669 7.50174098011364  C 7.29519807514391 7.61139144176136  7.45248806280839 7.66652210582386  7.60914809056332 7.66652210582386  C 7.76766482704564 7.66652210582386  7.92677835243626 7.61026134588068  8.04706673391242 7.49835067471591  L 14.7952179854544 1.22506139914773  Z " fill-rule="nonzero" fill="#333333" stroke="none" transform="matrix(1 0 0 1 443 258 )" />
  </g>
</svg>