<?xml version="1.0" encoding="utf-8"?>
<svg version="1.1" xmlns:xlink="http://www.w3.org/1999/xlink" width="7px" height="9px" xmlns="http://www.w3.org/2000/svg">
  <g transform="matrix(1 0 0 1 -1155 -469 )">
    <path d="M 3.02805796467391 0.702967735887097  C 3.02805796467391 1.05599999395161  2.72939130434783 1.34090321370968  2.35930434782609 1.34090323185484  L 0.68417391304348 1.34090323185484  C 0.320579703804349 1.34090323185484  0.0154202961956537 1.05600001209677  0.0154202961956537 0.702967735887097  C 0.0154202961956537 0.35612902016129  0.31408695652174 0.0650322580645162  0.68417391304348 0.0650322580645162  L 2.35930434782609 0.0650322580645162  C 2.72939130434783 0.0650322580645162  3.02805796467391 0.34993547782258  3.02805796467391 0.702967735887097  Z M 6.85878260869565 6.69212903830645  C 7.07304347826087 6.90270967741935  6.92371013858696 7.24335485080645  6.62504347826087 7.24335483266129  L 3.96950725271739 7.24335483266129  C 3.77472464402174 7.24335483266129  3.61889855706522 7.09470967137097  3.61889855706522 6.90890321975806  C 3.61889855706522 6.72309676814516  3.77472464402174 6.57445160685484  3.96950725271739 6.57445160685484  L 5.74852173913044 6.57445160685484  L 5.69008695652174 6.51870967137097  C 5.55373913043478 6.38864515524194  5.55373913043478 6.17806451612903  5.69008695652174 6.048  C 5.8264347826087 5.91793548387097  6.04718839945652 5.91793548387097  6.18353622554348 6.048  L 6.85878260869565 6.69212903830645  Z M 3.72278260869565 8.19716129637097  C 3.50852173913044 7.98658065725807  3.65785507880435 7.64593548387097  3.95652173913043 7.64593548387097  L 6.61205796467391 7.64593548387097  C 6.80684057336957 7.64593548387097  6.96266666032609 7.79458064516129  6.96266666032609 7.98038709677419  C 6.96266666032609 8.1661935483871  6.80684057336957 8.31483870967742  6.61205796467391 8.31483870967742  L 4.83304347826087 8.31483870967742  L 4.89147826086957 8.37058064516129  C 5.02782608695652 8.50064516129032  5.02782608695652 8.71122580040323  4.89147826086957 8.84129031653226  C 4.75513043478261 8.97135483266129  4.53437681793478 8.97135483266129  4.39802899184783 8.84129031653226  L 3.72278260869565 8.19716129637097  Z " fill-rule="nonzero" fill="#1e9fff" stroke="none" transform="matrix(1 0 0 1 1155 469 )" />
  </g>
</svg>