<?xml version="1.0" encoding="utf-8"?>
<svg version="1.1" xmlns:xlink="http://www.w3.org/1999/xlink" width="10px" height="14px" xmlns="http://www.w3.org/2000/svg">
  <g transform="matrix(1 0 0 1 -1154 -512 )">
    <path d="M 7.75268816532258 12.6  C 7.75268816532258 13.3293023255814  7.1333333266129 13.9196899156977  6.37634409274194 13.9196899156977  L 3.62365590725807 13.9196899156977  C 2.86666665322581 13.9196899156977  2.24731181451613 13.3293023255814  2.24731183467742 12.6  L 2.24731183467742 6.2446511627907  L 1.45591397177419 6.2446511627907  C 0.870967741935485 6.2446511627907  0.35483870967742 5.89736433430233  0.148387096774194 5.41116279069767  C -0.0580645161290322 4.92496124709302  0.0451612903225808 4.3693023255814  0.423655907258064 3.98728682848837  L 4.03655913306452 0.444961247093023  C 4.58709677419355 -0.110697674418605  5.44731181451613 -0.110697674418605  5.99784945564516 0.444961247093023  L 9.54193548387097 3.98728682848837  C 9.92043010080645 4.33457365697674  10.058064516129 4.89023255813954  9.85161290322581 5.37643410174419  C 9.64516129032258 5.89736433430233  9.16344086693548 6.2446511627907  8.57849461693548 6.2446511627907  L 7.75268816532258 6.2446511627907  L 7.75268816532258 12.6  Z M 3.62365590725807 5.55007752616279  L 3.62365590725807 12.5305426424419  L 6.37634409274194 12.5305426424419  L 6.37634409274194 5.55007752616279  C 6.37634409274194 5.16806202906977  6.68602151209677 4.85550388953488  7.06451612903226 4.85550386918605  L 8.47526881048387 4.85550386918605  L 5.03440860887097 1.41736433430233  L 1.52473118951613 4.85550386918605  L 2.93548387096774 4.85550386918605  C 3.31397848790323 4.85550386918605  3.62365590725807 5.16806200872093  3.62365590725807 5.55007752616279  Z " fill-rule="nonzero" fill="#3793df" stroke="none" transform="matrix(1 0 0 1 1154 512 )" />
  </g>
</svg>