<?xml version="1.0" encoding="utf-8"?>
<svg version="1.1" xmlns:xlink="http://www.w3.org/1999/xlink" width="6px" height="3px" xmlns="http://www.w3.org/2000/svg">
  <g transform="matrix(1 0 0 1 -1156 -526 )">
    <path d="M 5.92571427857143 0.64909090909091  C 5.92571427857143 0.969090903409091  5.59657142142857 1.23090908522727  5.19428571428571 1.23090908522727  L 0.805714285714286 1.23090908522727  C 0.403428578571429 1.23090908522727  0.0742857214285721 0.969090903409091  0.0742857214285721 0.64909090909091  C 0.0742857214285721 0.329090914772728  0.403428578571429 0.0672727329545463  0.805714285714286 0.0672727329545463  L 5.19428571428572 0.0672727329545463  C 5.59657142142857 0.0672727329545463  5.92571427857143 0.329090914772728  5.92571427857143 0.64909090909091  Z M 5.92571427857143 2.39454545454546  C 5.92571427857143 2.71454544886364  5.59657142142857 2.97636363068182  5.19428571428571 2.97636363068182  L 0.805714285714286 2.97636363068182  C 0.403428578571429 2.97636363068182  0.0742857214285721 2.71454544886364  0.0742857214285721 2.39454545454546  C 0.0742857214285721 2.07454546022727  0.403428578571429 1.81272727840909  0.805714285714286 1.81272727840909  L 5.19428571428572 1.81272727840909  C 5.59657142142857 1.81272727840909  5.92571427857143 2.07454546022727  5.92571427857143 2.39454545454546  Z " fill-rule="nonzero" fill="#eb4af4" stroke="none" transform="matrix(1 0 0 1 1156 526 )" />
  </g>
</svg>