<?xml version="1.0" encoding="utf-8"?>
<svg version="1.1" xmlns:xlink="http://www.w3.org/1999/xlink" width="12px" height="12px" xmlns="http://www.w3.org/2000/svg">
  <g transform="matrix(1 0 0 1 -849 -118 )">
    <path d="M 11.36636582393 0.698938474708172  C 11.5863848972114 0.936213943579767  11.7567918226329 1.18427465758755  11.8775865875486 1.44312057879377  C 11.9120993787289 1.52077436738003  11.9401410236706 1.61137045265888  11.9617115223735 1.71490883463035  C 11.9832820210765 1.81844721660182  11.994067270428 1.92629970168612  11.994067270428 2.03846628988327  C 11.994067270428 2.15063287808041  11.972496771725 2.26279946206226  11.9293557743191 2.37496604182879  C 11.8862147769131 2.48713262159533  11.8171891861219 2.59498510667964  11.7222790019455 2.69852349708171  C 11.6187406199741 2.80206187905318  11.5259874831388 2.89265796433204  11.4440195914397 2.97031175291829  C 11.3620516997406 3.04796554150454  11.2908690616083 3.11699113229572  11.2304716770428 3.17738852529183  C 11.1614460862516 3.24641411608301  11.096734594358 3.30681150907912  11.0363372013619 3.35858070428016  L 8.61612746692607 0.938370969844358  C 8.71966584889754 0.843460785667964  8.84261768223087 0.729137154345007  8.98498296692607 0.595400075875487  C 9.12734825162127 0.461662997405966  9.24598598605707 0.355967563878081  9.34089617023347 0.278313775291829  C 9.46169095622568 0.183403591115435  9.58679983690013 0.116535051880675  9.71622281225681 0.0777081575875488  C 9.84564578761349 0.038881263294423  9.97291171984436 0.0216248677042803  10.0980206089494 0.0259389708171208  C 10.2231294980545 0.0302530739299613  10.3439242798314 0.0496665210765242  10.4604049542802 0.0841793122568095  C 10.5768856287289 0.118692103437095  10.6782669633593 0.157518997730221  10.7645489581712 0.200659995136187  C 10.9457411287289 0.295570179312581  11.1463467506485 0.461663005836576  11.36636582393 0.698938474708172  Z M 1.51727695330739 8.08899064494163  C 1.58198844098573 7.98976636608301  1.67474157782101 7.87975683365759  1.79553638910506 7.75896204766537  C 1.8473055843061 7.70719285246433  1.96810036608301 7.584241019131  2.1579207344358 7.39010654766537  C 2.34774110278859 7.19597207619974  2.58501656744488 6.95653955998703  2.86974712840467 6.67180899902724  L 3.8145348881323 5.72702123929961  L 4.86286103404669 4.67869509338521  L 7.64545512645915 1.89610100097276  L 10.0656648608949 4.32925304474708  L 7.28307076848249 7.11184713715953  L 6.2476869192607 8.16017328307393  C 5.90255897373541 8.49667303080415  5.5919438193904 8.80513113359274  5.31584145622568 9.08554759143969  C 5.03973909306096 9.36596404928664  4.81109182619974 9.59676836348898  4.62989965564202 9.77796053404669  C 4.44870748508431 9.95915270460441  4.340855 10.0626910907912  4.30634220038911 10.088575692607  C 4.22006021400778 10.1662294811933  4.12083592671855 10.248197368677  4.0086693385214 10.3344793550584  C 3.89650275032426 10.4207613414397  3.78002206744488 10.4897869322309  3.65922728988327 10.5415561274319  C 3.53843250389105 10.601953520428  3.36155443223087 10.6752932101167  3.12859307490272 10.7615751964981  C 2.89563171757458 10.8478571828794  2.65188510246433 10.9319821219196  2.39735322957198 11.0139500136187  C 2.14282135667964 11.0959179053178  1.90123179312581 11.1671005434501  1.67258453891051 11.2274979280156  C 1.4439372846952 11.2878953125811  1.27353035927367 11.3267222068742  1.16136376264591 11.3439786108949  C 0.92840239688716 11.3698632042802  0.773094819714656 11.3353504088846  0.695441031128405 11.2404402247082  C 0.617787242542153 11.1455300405318  0.59621674383917 10.9859083644617  0.630729535019455 10.7615751964981  C 0.647985930609598 10.6407804105058  0.688969876459144 10.4660593861868  0.753681372568093 10.2374121235409  C 0.818392868677043 10.0087648608949  0.887418459468223 9.77148939623865  0.960758144941634 9.52558572957198  C 1.03409783041505 9.27968206290532  1.10528046854734 9.05319184760052  1.17430605933852 8.84611508365759  C 1.2433316501297 8.63903831971466  1.29941494001297 8.49667303923476  1.34255592898833 8.4190192422179  C 1.39432512418936 8.29822445622568  1.45256546562905 8.18821492380026  1.51727695330739 8.08899064494163  Z " fill-rule="nonzero" fill="#f7f9fa" stroke="none" transform="matrix(1 0 0 1 849 118 )" />
  </g>
</svg>