<?xml version="1.0" encoding="utf-8"?>
<svg version="1.1" xmlns:xlink="http://www.w3.org/1999/xlink" width="4px" height="9px" xmlns="http://www.w3.org/2000/svg">
  <g transform="matrix(1 0 0 1 -986 -120 )">
    <path d="M 0.456250000000001 8.625  C 0.672916666666667 8.625  0.862500000000001 8.41171875  0.862500000000001 8.16796875  L 0.862500000000001 1.76953125  C 0.862500000000001 1.52578125  0.672916666666667 1.3125  0.456250000000001 1.3125  C 0.239583333333333 1.3125  0.0500000000000007 1.52578125  0.0500000000000007 1.76953125  L 0.0500000000000007 8.16796875  C 0.0500000000000007 8.41171875  0.239583333333333 8.625  0.456250000000001 8.625  Z M 3.54375 8.625  C 3.76041666666667 8.625  3.95 8.41171875  3.95 8.16796875  L 3.95 1.76953125  C 3.95 1.52578125  3.76041666666667 1.3125  3.54375 1.3125  C 3.32708333333333 1.3125  3.1375 1.52578125  3.1375 1.76953125  L 3.1375 8.16796875  C 3.1375 8.41171875  3.32708333333333 8.625  3.54375 8.625  Z " fill-rule="nonzero" fill="#d81e06" stroke="none" transform="matrix(1 0 0 1 986 120 )" />
  </g>
</svg>