<?xml version="1.0" encoding="utf-8"?>
<svg version="1.1" xmlns:xlink="http://www.w3.org/1999/xlink" width="20px" height="12px" xmlns="http://www.w3.org/2000/svg">
  <g transform="matrix(1 0 0 1 -184 -22 )">
    <path d="M 19.7269573139391 1.83759209872159  C 20.0476821289062 1.5025473100142  20.0452507195724 0.963076198508522  19.7228460372122 0.631513370028409  C 19.3996456363076 0.300821004971591  18.8798990542763 0.302516175426136  18.5600142115543 0.63664463778409  L 10.1348768246299 9.44828101917614  L 1.59210348992599 0.67416708984375  C 1.26890308902138 0.342650071022727  0.749156506990132 0.345169895241476  0.428431717722039 0.679298357599432  C 0.108546874999999 1.01425150035511  0.110978284333881 1.5537226118608  0.433382940995066 1.88528546697443  L 9.51314373458059 11.2100035600142  C 9.52711328125 11.2244810901989  9.54519410464638 11.2279172141335  9.55920785361842 11.2415242542614  C 9.56247920949835 11.2449145685369  9.56331913034539 11.2491753462358  9.56659048622533 11.2526114701705  C 9.72693076685855 11.417087162642  9.93665075041118 11.4997831587358  10.1455307874178 11.4997831587358  C 10.3568864360609 11.4997831587358  10.5690378032484 11.415392018821  10.7294223118832 11.2475260120739  L 19.7269573139391 1.83759209872159  Z " fill-rule="nonzero" fill="#575b66" stroke="none" transform="matrix(1 0 0 1 184 22 )" />
  </g>
</svg>