<?xml version="1.0" encoding="utf-8"?>
<svg version="1.1" xmlns:xlink="http://www.w3.org/1999/xlink" width="22px" height="22px" xmlns="http://www.w3.org/2000/svg">
  <g transform="matrix(1 0 0 1 -254 -23 )">
    <path d="M 20.7777777753906 11  C 20.7777777753906 5.62222222460937  16.3777777753906 1.22222222460937  11 1.22222222460938  C 5.62222222460938 1.22222222460938  1.22222222460938 5.62222222460938  1.22222222460938 11  C 1.22222222460938 16.3777777753906  5.62222222460938 20.7777777753906  11 20.7777777753906  C 16.3777777753906 20.7777777753906  20.7777777753906 16.3777777753906  20.7777777753906 11  Z M 19.5555555507812 11  C 19.5555555507812 15.7666666523437  15.7666666523437 19.5555555507813  11 19.5555555507813  C 6.23333332617187 19.5555555507813  2.44444444921875 15.7666666523437  2.44444444921875 11  C 2.44444444921875 6.23333334765625  6.23333334765625 2.44444444921875  11 2.44444444921875  C 15.7666666523437 2.44444444921875  19.5555555507812 6.23333334765625  19.5555555507812 11  Z " fill-rule="nonzero" fill="#d81e06" stroke="none" transform="matrix(1 0 0 1 254 23 )" />
  </g>
</svg>