<?xml version="1.0" encoding="utf-8"?>
<svg version="1.1" xmlns:xlink="http://www.w3.org/1999/xlink" width="4px" height="13px" xmlns="http://www.w3.org/2000/svg">
  <g transform="matrix(1 0 0 1 -263 -27 )">
    <path d="M 2.7777777734375 10.4722222151693  C 2.555555546875 10.2314814697266  2.3333333203125 10.1111110970052  2 10.1111111181641  C 1.66666666015625 10.1111111181641  1.444444453125 10.2314814908854  1.2222222265625 10.4722222151693  C 1 10.712962960612  0.88888888671875 10.9537037060547  0.88888888671875 11.3148148242188  C 0.88888888671875 11.6759259423828  1 11.9166666666667  1.2222222265625 12.1574074121094  C 1.444444453125 12.3981481575521  1.6666666796875 12.5185185302734  2 12.5185185091146  C 2.33333333984375 12.5185185091146  2.555555546875 12.3981481363932  2.7777777734375 12.1574074121094  C 3 11.9166666666667  3.11111111328125 11.675925921224  3.11111111328125 11.3148148242188  C 3.11111111328125 10.9537037060547  3 10.7129629817708  2.7777777734375 10.4722222151693  Z M 3 0.481481490885417  L 1 0.481481490885416  L 1.33333333984375 9.14814815755208  L 2.555555546875 9.14814815755208  L 3 0.481481490885417  Z " fill-rule="nonzero" fill="#d81e06" stroke="none" transform="matrix(1 0 0 1 263 27 )" />
  </g>
</svg>