<?xml version="1.0" encoding="utf-8"?>
<svg version="1.1" xmlns:xlink="http://www.w3.org/1999/xlink" width="12px" height="12px" xmlns="http://www.w3.org/2000/svg">
  <g transform="matrix(1 0 0 1 -1164 -115 )">
    <path d="M 10.93337109375 7.5531796875  C 10.7414296875 7.5531796875  10.51981640625 7.71022265625  10.51981640625 7.9021640625  L 10.51981640625 9.31034765625  C 10.51981640625 9.97866796875  9.980625 10.51959375  9.31754296875 10.51959375  L 2.64833203125 10.51959375  C 1.98350390625 10.51959375  1.44605859375 9.97866796875  1.44605859375 9.31034765625  L 1.44605859375 2.65510546875  C 1.44605859375 1.98678515625  1.98350390625 1.445859375  2.64833203125 1.445859375  L 5.6025234375 1.445859375  C 5.79446484375 1.445859375  5.9497734375 1.46330859375  5.9497734375 1.2713671875  C 5.9497734375 1.07942578125  5.7944765625 0.747890625  5.6025234375 0.747890625  L 2.135296875 0.747890625  C 1.369265625 0.747890625  0.74806640625 1.37258203125  0.74806640625 2.1438515625  L 0.74806640625 9.82163671875  C 0.74806640625 10.59290625  1.369265625 11.21759765625  2.135296875 11.21759765625  L 9.83053125 11.21759765625  C 10.5965625 11.21759765625  11.21776171875 10.59290625  11.21776171875 9.82163671875  L 11.21776171875 7.9021875  C 11.2177734375 7.71024609375  11.1252890625 7.553203125  10.93334765625 7.553203125  Z M 2.90309765625 8.70659765625  C 2.8472578125 9.08698828125  3.10726171875 9.34175390625  3.48416015625 9.27196875  L 5.69675390625 8.87237109375  L 3.24509765625 6.405  L 2.9030859375 8.70659765625  Z M 7.49581640625 3.28153125  C 7.76803125 3.00758203125  8.2060078125 3.00758203125  8.47822265625 3.28153125  L 8.96855859375 3.7736015625  C 9.23902734375 4.04755078125  9.23902734375 4.48903125  8.96855859375 4.761234375  L 6.7611796875 6.9825703125  C 6.4907109375 7.25478515625  6.05098828125 7.25478515625  5.78051953125 6.9825703125  L 5.29018359375 6.4887421875  C 5.01971484375 6.21652734375  5.01971484375 5.77505859375  5.29018359375 5.501109375  L 7.49581640625 3.28151953125  Z M 6.27085546875 8.46403125  L 10.43954296875 4.2674296875  L 7.98788671875 1.8000703125  L 3.81919921875 5.9949375  L 6.27085546875 8.46404296875  Z M 10.84611328125 3.689859375  L 10.96651171875 3.5694609375  C 11.37308203125 3.1611328125  11.25268359375 2.6184609375  10.84611328125 2.21014453125  L 9.865453125 1.2225  C 9.4588828125 0.814171875  8.80102734375 0.814171875  8.39445703125 1.2225  L 10.84611328125 3.689859375  Z " fill-rule="nonzero" fill="#378bfb" stroke="none" transform="matrix(1 0 0 1 1164 115 )" />
  </g>
</svg>