<?xml version="1.0" encoding="utf-8"?>
<svg version="1.1" xmlns:xlink="http://www.w3.org/1999/xlink" width="6px" height="7px" xmlns="http://www.w3.org/2000/svg">
  <g transform="matrix(1 0 0 1 -1168 -211 )">
    <path d="M 5.09235294117647 1.01529411764706  C 4.99603550546991 0.911737946672785  4.86098346412623 0.85291170732437  4.71955882352941 0.85291170732437  C 4.57813418293259 0.85291170732437  4.44308214158891 0.911737946672784  4.34676470588235 1.01529411764706  L 2.64117647058823 2.75  L 0.935588235294118 1.01529411764706  C 0.839249383104047 0.911450101830896  0.704003052585278 0.852436768300269  0.56235294117647 0.852436768300269  C 0.420702829767663 0.852436768300269  0.285456499248895 0.911450101830897  0.189117647058824 1.01529411764706  C 0.0867004356745715 1.1149602405471  0.0289260462277827 1.25179814553771  0.0289260462277827 1.39470588235294  C 0.0289260462277827 1.53761361916818  0.0867004356745715 1.67445152415878  0.189117647058824 1.77411764705882  L 1.89470588235294 3.50882352941176  L 0.189117647058824 5.24352941176471  C 0.0867004356745715 5.34319553466475  0.0289260462277827 5.48003343965535  0.0289260462277827 5.62294117647059  C 0.0289260462277827 5.76584891328582  0.0867004356745715 5.90268681827643  0.189117647058824 6.00235294117647  C 0.294143776227169 6.10200728917725  0.435400455152698 6.15430095812484  0.58 6.14705882352941  C 0.724599544847303 6.15430095812484  0.865856223772831 6.10200728917725  0.970882352941175 6.00235294117647  L 2.67647058823529 4.26764705882353  L 4.38205882352941 6.00235294117647  C 4.48708495269776 6.10200728917724  4.62834163162328 6.15430095812484  4.77294117647059 6.14705882352941  C 4.91754072131789 6.15430095812484  5.05879740024342 6.10200728917724  5.16382352941176 6.00235294117647  C 5.26624074079601 5.90268681827643  5.3240151302428 5.76584891328582  5.3240151302428 5.62294117647059  C 5.3240151302428 5.48003343965535  5.26624074079602 5.34319553466475  5.16382352941176 5.2435294117647  L 3.38676470588235 3.545  L 5.09235294117647 1.81029411764706  C 5.30524520472665 1.58839340029144  5.30524520472665 1.23807718794385  5.09235294117647 1.01617647058823  Z " fill-rule="nonzero" fill="#bfbfbf" stroke="none" transform="matrix(1 0 0 1 1168 211 )" />
  </g>
</svg>