<?xml version="1.0" encoding="utf-8"?>
<svg version="1.1" xmlns:xlink="http://www.w3.org/1999/xlink" width="15px" height="15px" xmlns="http://www.w3.org/2000/svg">
  <g transform="matrix(1 0 0 1 -1163 -304 )">
    <path d="M 14.0233596533203 3.974000625  C 14.0233446679688 3.62110989257812  13.8855430957031 3.28912996582031  13.6353627246094 3.039279375  L 11.9721204052734 1.37578221679688  C 11.7223597412109 1.12573674316406  11.3903198730469 0.988025112304688  11.0371293310547 0.988025112304688  C 10.6840587158203 0.988025112304688  10.3520038476562 1.12563181640625  10.1020333300781 1.37560233398438  L 2.30321091796875 9.19867829589844  L 2.2834243359375 9.21852483398438  L 0.998120771484375 14.0126644189453  L 5.82477329589844 12.7198359521484  L 13.6347781054688 4.90927650878906  C 13.8853632128906 4.65902118164063  14.0233596533203 4.32686138671875  14.0233596533203 3.974000625  Z M 4.85965265625 12.1892706738281  L 3.27077491699219 12.6144873779297  L 2.39635776855469 11.7401152001953  L 2.822518828125 10.1521518457031  L 4.85965265625 12.1892706738281  Z M 11.370653203125 6.09518247070312  L 5.60748062988281 11.8589096630859  L 3.16367252929687 9.41511654785156  L 8.91582757324219 3.64085150390625  L 11.370653203125 6.09518247070312  Z M 13.2608865966797 3.973985625  C 13.2608866259766 4.12296962402344  13.2022463818359 4.2635143359375  13.0956986132813 4.36985223632812  L 12.3317865527344 5.13403412109375  L 9.87580669921875 2.67959822753906  L 10.6419672363281 1.91441201660156  C 10.7416346630859 1.8143098828125  10.8855970605469 1.75689880371094  11.0369044628906 1.75689880371094  C 11.1883917480469 1.75689880371094  11.3327588671875 1.81436983886719  11.4329659277344 1.9145619140625  L 13.0962532177734 3.57838883789062  C 13.2024262353516 3.68456185546875  13.2608865966797 3.82506159667969  13.2608865966797 3.973985625  Z " fill-rule="nonzero" fill="#378bfb" stroke="none" transform="matrix(1 0 0 1 1163 304 )" />
  </g>
</svg>