<?xml version="1.0" encoding="utf-8"?>
<svg version="1.1" xmlns:xlink="http://www.w3.org/1999/xlink" width="50px" height="36px" viewBox="180 243  50 36" xmlns="http://www.w3.org/2000/svg">
  <path d="M 181 246  A 2 2 0 0 1 183 244 L 227 244  A 2 2 0 0 1 229 246 L 229 276  A 2 2 0 0 1 227 278 L 183 278  A 2 2 0 0 1 181 276 L 181 246  Z " fill-rule="nonzero" fill="#ffffff" stroke="none" />
  <path d="M 180.5 246  A 2.5 2.5 0 0 1 183 243.5 L 227 243.5  A 2.5 2.5 0 0 1 229.5 246 L 229.5 276  A 2.5 2.5 0 0 1 227 278.5 L 183 278.5  A 2.5 2.5 0 0 1 180.5 276 L 180.5 246  Z " stroke-width="1" stroke="#999999" fill="none" stroke-opacity="0.349019607843137" />
</svg>