<?xml version="1.0" encoding="utf-8"?>
<svg version="1.1" xmlns:xlink="http://www.w3.org/1999/xlink" width="13px" height="13px" xmlns="http://www.w3.org/2000/svg">
  <g transform="matrix(1 0 0 1 -1164 -257 )">
    <path d="M 12.9548611111111 2.83246527777778  C 12.9548611111111 2.59774305555556  12.7494791666667 2.39236111111111  12.5147569444444 2.39236111111111  L 9.72743055555556 2.39236111111111  L 9.72743055555556 1.36545138888889  C 9.72743055555556 0.631944444444444  9.140625 0.0451388888888889  8.40711805555556 0.0451388888888889  L 4.59288194444444 0.0451388888888889  C 3.859375 0.0451388888888889  3.27256944444444 0.631944444444444  3.27256944444444 1.36545138888889  L 3.27256944444444 2.39236111111111  L 0.485243055555556 2.39236111111111  C 0.250520833333333 2.39236111111111  0.0451388888888889 2.59774305555556  0.0451388888888889 2.83246527777778  C 0.0451388888888889 3.0671875  0.250520833333333 3.27256944444444  0.485243055555556 3.27256944444444  L 12.5147569444444 3.27256944444444  C 12.7494791666667 3.27256944444444  12.9548611111111 3.0671875  12.9548611111111 2.83246527777778  Z M 8.84722222222222 2.39236111111111  L 4.15277777777778 2.39236111111111  L 4.15277777777778 1.36545138888889  C 4.15277777777778 1.13072916666667  4.35815972222222 0.925347222222222  4.59288194444444 0.925347222222222  L 8.40711805555556 0.925347222222222  C 8.64184027777778 0.925347222222222  8.84722222222222 1.13072916666667  8.84722222222222 1.36545138888889  L 8.84722222222222 2.39236111111111  Z M 11.4878472222222 4.59288194444444  C 11.4585069444444 4.35815972222222  11.253125 4.15277777777778  11.0184027777778 4.15277777777778  C 10.7836805555556 4.15277777777778  10.5782986111111 4.35815972222222  10.5782986111111 4.59288194444444  L 10.5782986111111 11.253125  C 10.5782986111111 11.6932291666667  10.2262152777778 12.0746527777778  9.75677083333333 12.0746527777778  L 3.21388888888889 12.0746527777778  C 2.77378472222222 12.0746527777778  2.39236111111111 11.7225694444444  2.39236111111111 11.253125  L 2.39236111111111 4.59288194444444  C 2.39236111111111 4.35815972222222  2.18697916666667 4.15277777777778  1.95225694444444 4.15277777777778  C 1.71753472222222 4.15277777777778  1.51215277777778 4.35815972222222  1.51215277777778 4.59288194444444  L 1.51215277777778 11.253125  C 1.51215277777778 12.1920138888889  2.275 12.9548611111111  3.21388888888889 12.9548611111111  L 9.78611111111111 12.9548611111111  C 10.725 12.9548611111111  11.4878472222222 12.1920138888889  11.4878472222222 11.253125  L 11.4878472222222 4.59288194444444  Z " fill-rule="nonzero" fill="#1e9fff" stroke="none" transform="matrix(1 0 0 1 1164 257 )" />
  </g>
</svg>