<?xml version="1.0" encoding="utf-8"?>
<svg version="1.1" xmlns:xlink="http://www.w3.org/1999/xlink" width="15px" height="15px" xmlns="http://www.w3.org/2000/svg">
  <g transform="matrix(1 0 0 1 -1163 -352 )">
    <path d="M 9.37342516113281 14.0424995800781  C 9.33058961425781 14.0550982763672  9.28775406738281 14.0626574853516  9.24239878417969 14.0626574853516  C 9.09625398925781 14.0626574853516  8.95262891601563 13.9921048242187  8.8644380859375 13.8711574072266  L 7.78851 12.397110703125  C 7.58945069824219 12.4097093994141  7.40802956542969 12.4097093994141  7.20897027832031 12.397110703125  L 6.13304217773438 13.8686376708984  C 6.01713423339844 14.0273811621094  5.8155551953125 14.0979338232422  5.62657485351563 14.0424995947266  C 5.12010752929687 13.8988745361328  4.63883758300781 13.699815234375  4.19536369628906 13.4528809130859  C 4.02402150878906 13.3571308740234  3.93079120605469 13.16563078125  3.96102807128906 12.9716109667969  L 4.24323871582031 11.1649588623047  C 4.09961365722656 11.0364522216797  3.96354780761719 10.9003863720703  3.83504116699219 10.7567613134766  L 2.0283890625 11.0389719580078  C 1.836888984375 11.0692088085937  1.64286915527344 10.9759785058594  1.54711911621094 10.8046363330078  C 1.30018479492188 10.3586427099609  1.10112549316406 9.87737276367188  0.957500434570313 9.37090543945313  C 0.904585942382813 9.18192509765625  0.9726188671875 8.98034605957031  1.13136235839844 8.86443811523438  L 2.60288932617188 7.78851001464844  C 2.5953301171875 7.68772050292969  2.59281038085938 7.59197044921875  2.59281038085938 7.49874014648438  C 2.59281038085938 7.40550984375  2.5953301171875 7.3097598046875  2.60288932617188 7.20897027832031  L 1.13136235839844 6.13304217773438  C 0.9726188671875 6.01713423339844  0.902066206054688 5.8155551953125  0.957500434570313 5.62657485351563  C 1.10112549316406 5.12010752929688  1.30018479492188 4.63883758300781  1.54711911621094 4.19536369628906  C 1.64286915527344 4.02402150878906  1.836888984375 3.93079120605469  2.0283890625 3.96102807128906  L 3.83504116699219 4.24323871582031  C 3.96354780761719 4.09961365722656  4.09961365722656 3.96354780761719  4.24323871582031 3.83504116699219  L 3.96102807128906 2.0283890625  C 3.93079122070313 1.83436923339844  4.0240215234375 1.64286915527344  4.19788343261719 1.54711911621094  C 4.64387705566406 1.30018479492188  5.12514700195313 1.10112549316406  5.62909458984375 0.957500434570313  C 5.81807493164063 0.904585942382813  6.01965396972656 0.9726188671875  6.1355619140625 1.13136235839844  L 7.21149001464844 2.60288932617188  C 7.41054931640625 2.59029062988281  7.58945071289063 2.59029062988281  7.79102973632813 2.60288932617188  L 8.86695783691406 1.13136235839844  C 8.98286578125 0.9726188671875  9.18444481933594 0.904585942382813  9.37342516113281 0.957500434570313  C 9.87737274902344 1.10112549316406  10.3586426953125 1.30018479492188  10.8046363183594 1.54711911621094  C 10.9759785058594 1.64286915527344  11.0692088085937 1.83436924804688  11.0389719433594 2.0283890625  L 10.7567612988281 3.83504116699219  C 10.9003863574219 3.96354780761719  11.0364522070313 4.09961365722656  11.1649588476562 4.24071897949219  L 12.9716109521484 3.95850833496094  C 13.1631110302734 3.928271484375  13.357130859375 4.02150178710937  13.4528808984375 4.19284395996094  C 13.6998152197266 4.63883758300781  13.8988745214844 5.12010752929688  14.0450193164063 5.62657485351563  C 14.0979338085937 5.8155551953125  14.0299008837891 6.01713423339844  13.8711573925781 6.13304217773438  L 12.397110703125 7.20897026367187  C 12.4046699121094 7.30975977539062  12.4071896484375 7.40550982910156  12.4071896484375 7.49874013183594  C 12.4071896484375 7.59197043457031  12.4046699121094 7.68772047363281  12.397110703125 7.78851  L 13.8686376708984 8.86443810058594  C 14.0273811621094 8.98034604492187  14.0954140869141 9.18192508300781  14.0424995947266 9.37090542480469  C 13.8988745361328 9.87737274902344  13.699815234375 10.3586426953125  13.4503611767578 10.8046363183594  C 13.3546111376953 10.9759785058594  13.1656307958984 11.0692088085937  12.9690912304688 11.0389719433594  L 11.1649588476562 10.7592810351563  C 11.0389719433594 10.90290609375  10.9003863574219 11.0389719433594  10.7567612988281 11.1649588476562  L 11.0389719433594 12.9716109521484  C 11.0692087939453 13.16563078125  10.9759784912109 13.357130859375  10.8046363183594 13.4528808984375  C 10.3611624462891 13.6998152197266  9.87989248535156 13.8988745214844  9.37342516113281 14.0424995800781  Z M 5.20829833007812 11.0490508886719  L 4.93868638183594 12.7826306103516  C 5.14278515625 12.8809003857422  5.35696287597656 12.9690912158203  5.57618008300781 13.0446833496094  L 6.60927263671875 11.6311103613281  C 6.70754241210937 11.4950445117187  6.87384512695312 11.4219721142578  7.04014782714844 11.4421300195312  C 7.34251637695312 11.4774063574219  7.65748362304687 11.4774063574219  7.95733243652344 11.4421300195312  C 8.13119436035156 11.4219721142578  8.2899378515625 11.4950445117187  8.38820762695312 11.6311103613281  L 9.42130018066406 13.0446833496094  C 9.64051738769531 12.9690912158203  9.85469510742187 12.8809003857422  10.0587938818359 12.7826306103516  L 9.78918191894531 11.0490509033203  C 9.76398454101562 10.882748203125  9.82949772949219 10.7139257519531  9.96052410644531 10.6106165039062  C 10.19989921875 10.4191164257812  10.4191164111328 10.2024189550781  10.6080967529297 9.96304385742187  C 10.7139257519531 9.83201748046875  10.8777087158203 9.76398455566406  11.0465311523437 9.79170166992187  L 12.780110859375 10.0613136328125  C 12.8783806347656 9.85721485839844  12.9665714648438 9.64303713867187  13.0421635986328 9.42381993164062  L 11.6285906103516 8.39072737792968  C 11.4925247607422 8.29245760253906  11.4194523632813 8.12615488769531  11.4396102685547 7.9598521875  C 11.4572484375 7.80866790527344  11.4673273828125 7.65748363769531  11.4673273828125 7.5012598828125  C 11.4673273828125 7.34503612792969  11.4572484375 7.19385186035156  11.4396102685547 7.042667578125  C 11.4194523632813 6.87636487792969  11.4925247607422 6.71006216308594  11.6285906103516 6.61179238769531  L 13.0421635986328 5.57869983398437  C 12.9665714648437 5.35948262695312  12.8783806347656 5.14530490722656  12.780110859375 4.9412061328125  L 11.0465311523437 5.21081809570312  C 10.8802284521484 5.23601547363281  10.7114060009766 5.17050228515625  10.6080967529297 5.03947590820312  C 10.4191164111328 4.802620546875  10.2024189404297 4.58340333984375  9.96052410644531 4.39190326171875  C 9.82949772949219 4.28607426269531  9.76398454101562 4.1197715625  9.78918191894531 3.95346886230469  L 10.0613136181641 2.21736938964844  C 9.85721484375 2.11909961425781  9.64303712402344 2.03090878417969  9.42381991699219 1.95531665039063  L 8.39072736328125 3.36888963867188  C 8.29245758789062 3.50495548828125  8.13119436035156 3.58054762207031  7.95985217285156 3.55786998046875  C 7.660003359375 3.52259364257813  7.34503611328125 3.52259364257813  7.04266756347656 3.55786998046875  C 6.87384512695312 3.57802788574219  6.7100621484375 3.50495548828125  6.60927263671875 3.36888963867188  L 5.57618008300781 1.95531665039063  C 5.35696287597656 2.03090878417969  5.14278515625 2.11909961425781  4.93868638183594 2.21736938964844  L 5.20829834472656 3.95094909667969  C 5.23349572265625 4.117251796875  5.16798253417969 4.28607424804687  5.03695615722656 4.38938349609375  C 4.79758104492188 4.57836383789062  4.58088358886719 4.79758104492188  4.38938351074219 5.03695614257812  C 4.28355451171875 5.16798251953125  4.11725181152344 5.23349570800781  3.95094911132813 5.20829833007812  L 2.21736938964844 4.93868638183594  C 2.11909961425781 5.14278515625  2.03090878417969 5.35696287597656  1.95531665039063 5.57618008300781  L 3.36888963867188 6.60927263671875  C 3.50495548828125 6.70754241210937  3.57802788574219 6.87384512695312  3.55786998046875 7.04266756347656  C 3.54023181152344 7.191332109375  3.53015286621094 7.34503611328125  3.53015286621094 7.49874013183594  C 3.53015286621094 7.65496388671875  3.54023181152344 7.80614815429687  3.55786998046875 7.95733243652344  C 3.57802788574219 8.12615487304688  3.50495548828125 8.2899378515625  3.36888963867188 8.39072736328125  L 1.95531665039063 9.42381991699219  C 2.03090878417969 9.64303712402344  2.11909961425781 9.85721484375  2.21736938964844 10.0613136181641  L 3.95094909667969 9.79170165527344  C 4.117251796875 9.76650427734375  4.28607424804687 9.83201746582031  4.38938349609375 9.96304384277344  C 4.57836383789062 10.2024189550781  4.79506130859375 10.4191164111328  5.03695614257812 10.6106164892578  C 5.16798251953125 10.7164454882813  5.23601544433594 10.8827481884766  5.20829833007812 11.0490508886719  Z " fill-rule="nonzero" fill="#bfbfbf" stroke="none" transform="matrix(1 0 0 1 1163 352 )" />
  </g>
</svg>