<?xml version="1.0" encoding="utf-8"?>
<svg version="1.1" xmlns:xlink="http://www.w3.org/1999/xlink" width="18px" height="18px" xmlns="http://www.w3.org/2000/svg">
  <g transform="matrix(1 0 0 1 -110 -144 )">
    <path d="M 17.0364023964844 12.3275927460937  C 16.5759227929688 13.3913395019531  15.9532172753906 14.3155306933594  15.1683247089844 15.1001428886719  C 14.3837125136719 15.8850354550781  13.4624534765625 16.5079999160156  12.405363328125 16.9682205761719  C 11.3480161699219 17.4289806035156  10.2161045917969 17.6590909160156  9.00958969335938 17.6590909160156  C 7.80337467773438 17.6590909160156  6.66825261328125 17.4289806035156  5.60422543359375 16.9682205761719  C 4.54047864257812 16.5079999160156  3.61628748632812 15.8850354550781  2.83167529101562 15.1001428886719  C 2.0467827421875 14.3155112167969  1.42381824609375 13.3913395019531  0.9635975859375 12.3275927460937  C 0.502837611328125 11.2635850429687  0.27272728125 10.1284649472656  0.27272728125 8.92222848632812  C 0.27272728125 7.71571358789063  0.502837611328125 6.58380200976563  0.9635975859375 5.52645488671875  C 1.42381824609375 4.469366671875  2.0467827421875 3.5481076171875  2.83167529101562 2.76349347070312  C 3.61628748632812 1.97860093945313  4.54047864257812 1.35589536914063  5.60422543359375 0.895415765625  C 6.66825261328125 0.43493614453125  7.80337270898437 0.2045454609375  9.00958969335938 0.2045454609375  C 10.2161045917969 0.2045454609375  11.3480161699219 0.4349342109375  12.405363328125 0.895415765625  C 13.46243203125 1.355916796875  14.3837105449219 1.97860093945313  15.1683247089844 2.76349347070312  C 15.9532172753906 3.54812514257813  16.5759013652344 4.4693861484375  17.0364023964844 5.52645488671875  C 17.4968820527344 6.58380200976563  17.72727271875 7.71571358789063  17.72727271875 8.92222848632812  C 17.72727271875 10.1284649472656  17.4969015292969 11.2635850429687  17.0364023964844 12.3275927460937  Z " fill-rule="nonzero" fill="#f68121" stroke="none" transform="matrix(1 0 0 1 110 144 )" />
  </g>
</svg>