<?xml version="1.0" encoding="utf-8"?>
<svg version="1.1" xmlns:xlink="http://www.w3.org/1999/xlink" width="15px" height="15px" xmlns="http://www.w3.org/2000/svg">
  <g transform="matrix(1 0 0 1 -238 -255 )">
    <path d="M 15 7.5  C 15 11.6357142857143  11.6357142857143 15  7.5 15  C 3.36428571428571 15  0 11.6357142857143  0 7.5  C 0 3.36428571428572  3.36428571428571 0  7.5 0  C 11.6357142857143 0  15 3.36428571428571  15 7.5  Z M 14.2857142801339 7.5  C 14.2857142801339 3.75714286272321  11.2428571372768 0.714285719866071  7.5 0.714285719866071  C 3.75714286272321 0.714285719866071  0.714285719866072 3.75714286272321  0.714285719866072 7.5  C 0.714285719866072 11.2428571372768  3.75714286272321 14.2857142801339  7.5 14.2857142801339  C 11.2428571372768 14.2857142801339  14.2857142801339 11.2428571372768  14.2857142801339 7.5  Z " fill-rule="nonzero" fill="#d81e06" stroke="none" transform="matrix(1 0 0 1 238 255 )" />
  </g>
</svg>