<?xml version="1.0" encoding="utf-8"?>
<svg version="1.1" xmlns:xlink="http://www.w3.org/1999/xlink" width="20px" height="20px" xmlns="http://www.w3.org/2000/svg">
  <g transform="matrix(1 0 0 1 -945 -94 )">
    <path d="M 19.8283991964286 19.8280337276786  C 20.0187843973214 19.6371688616071  20.0187843973214 19.3276644196429  19.8283763616071 19.13679953125  L 10.6895667633929 9.97587921875  L 19.7802261383929 0.86320046875  C 19.9706341741071 0.672312745535714  19.9706341741071 0.362831138392857  19.7802261383929 0.171966272321428  C 19.5897724107143 -0.0189214508928572  19.2811131026786 -0.0189214508928572  19.090659375 0.171966272321428  L 9.99997714285714 9.28464502232143  L 0.909317767857143 0.171966272321428  C 0.718909732142857 -0.0189214508928572  0.4101590625 -0.0189214508928572  0.219751004464286 0.171966272321428  C 0.0293658035714287 0.362853995535714  0.0293658035714287 0.672335602678571  0.219751004464286 0.86320046875  L 9.31043323660714 9.97587921875  L 0.171600803571428 19.13679953125  C -0.0187843973214287 19.3276872544643  -0.0187843973214287 19.6371688616071  0.171600803571428 19.8280337276786  C 0.266804821428571 19.9234433258929  0.391611629464285 19.9711823883929  0.516395602678571 19.9711823883929  C 0.641179575892857 19.9711823883929  0.765986383928572 19.9234433258929  0.861190401785714 19.8280337276786  L 10 10.6671133928571  L 19.1388095982143 19.8280337276786  C 19.2340364732143 19.9234433258929  19.3587975892857 19.9711823883929  19.4836043973214 19.9711823883929  C 19.6084112053571 19.9711823883929  19.7331494866071 19.9234433258929  19.8283991964286 19.8280337276786  Z " fill-rule="nonzero" fill="#272636" stroke="none" transform="matrix(1 0 0 1 945 94 )" />
  </g>
</svg>