<?xml version="1.0" encoding="utf-8"?>
<svg version="1.1" xmlns:xlink="http://www.w3.org/1999/xlink" width="15px" height="17px" xmlns="http://www.w3.org/2000/svg">
  <g transform="matrix(1 0 0 1 -297 -231 )">
    <path d="M 4.524 1.60933333333333  C 4.344 1.58593548387097  4.152 1.57423655913978  3.948 1.5625376344086  C 3.144 1.5625376344086  2.352 1.66782795698925  1.584 1.86670967741935  L 1.584 9.49440860215054  C 2.376 9.34232258064516  3.156 9.26043010752688  3.948 9.26043010752688  C 4.536 9.26043010752688  5.112 9.3189247311828  5.7 9.45931182795699  C 6.288 9.588  6.948 9.77518279569892  7.692 10.0208602150538  C 7.788 10.0559569892473  7.968 10.1144516129032  8.22 10.1963440860215  C 8.484 10.2782365591398  8.676 10.3484301075269  8.796 10.3835268817204  C 8.916 10.418623655914  9.096 10.4771182795699  9.324 10.5356129032258  C 9.552 10.6058064516129  9.756 10.6526021505376  9.912 10.676  C 10.068 10.7110967741935  10.248 10.7344946236559  10.452 10.7578924731183  C 10.656 10.7812903225806  10.848 10.7929892473118  11.04 10.7929892473118  C 11.844 10.7929892473118  12.636 10.6876989247312  13.404 10.4888172043011  L 13.404 2.88451612903226  C 12.624 3.03660215053764  11.832 3.11849462365591  11.04 3.11849462365591  C 10.452 3.11849462365591  9.876 3.04830107526882  9.288 2.91961290322581  C 8.7 2.7909247311828  8.04 2.60374193548387  7.296 2.35806451612903  L 6.756 2.18258064516129  C 6.564 2.12408602150538  6.372 2.05389247311828  6.18 1.99539784946237  C 6.06 1.96030107526882  5.88 1.9018064516129  5.652 1.84331182795699  C 5.424 1.78481720430108  5.22 1.72632258064516  5.064 1.69122580645161  C 4.908 1.66782795698925  4.728 1.6327311827957  4.524 1.60933333333333  Z M 2.64 0.111870967741935  C 3.072 0.0533763440860211  3.504 0.0299784946236555  3.948 0.0299784946236555  C 4.38 0.0299784946236555  4.848 0.0884731182795696  5.352 0.193763440860215  C 5.856 0.29905376344086  6.336 0.427741935483871  6.804 0.579827956989247  L 8.196 1.03608602150538  C 8.196 1.03608602150538  8.676 1.16477419354839  9.648 1.42215053763441  C 10.056 1.52744086021505  10.776 1.58593548387097  11.052 1.58593548387097  C 11.496 1.58593548387097  11.928 1.5625376344086  12.36 1.50404301075269  C 12.792 1.45724731182796  13.164 1.38705376344086  13.464 1.31686021505376  C 13.764 1.23496774193548  14.04 1.16477419354839  14.28 1.08288172043011  C 14.52 1.00098924731183  14.7 0.942494623655912  14.82 0.895698924731181  L 15 0.813806451612902  L 15 11.5885161290323  C 14.952 11.6119139784946  14.88 11.635311827957  14.808 11.6704086021505  C 14.724 11.7055053763441  14.556 11.764  14.292 11.8575913978495  C 14.016 11.9511827956989  13.74 12.021376344086  13.464 12.0915698924731  C 13.176 12.1617634408602  12.816 12.2202580645161  12.372 12.278752688172  C 11.928 12.337247311828  11.496 12.3606451612903  11.052 12.3606451612903  C 10.62 12.3606451612903  10.152 12.3021505376344  9.648 12.1968602150538  C 9.156 12.0915698924731  8.676 11.9628817204301  8.196 11.8107956989247  L 6.804 11.3662365591398  L 5.352 10.9801720430107  C 5.124 10.9216774193548  4.62 10.8397849462366  3.948 10.8163870967742  C 3.168 10.8163870967742  2.376 10.8982795698925  1.584 11.0737634408602  L 1.584 16.2095913978495  C 1.584 16.4201720430108  1.512 16.6073548387097  1.356 16.7594408602151  C 1.2 16.9115268817204  1.02 16.9817204301075  0.804000000000004 16.9817204301075  C 0.588000000000004 16.9817204301075  0.396000000000004 16.9115268817204  0.252000000000004 16.7594408602151  C 0.0960000000000041 16.6073548387097  0.024000000000004 16.4318709677419  0 16.2095913978495  L 0 0.802107526881721  C 0.0600000000000041 0.778709677419355  0.132000000000004 0.755311827956989  0.204000000000004 0.720215053763441  C 0.288000000000004 0.685118279569893  0.456000000000004 0.626623655913979  0.720000000000004 0.533032258064516  C 0.996000000000004 0.439440860215054  1.272 0.369247311827957  1.548 0.29905376344086  C 1.836 0.228860215053763  2.196 0.170365591397849  2.64 0.111870967741935  Z " fill-rule="nonzero" fill="#000000" stroke="none" transform="matrix(1 0 0 1 297 231 )" />
  </g>
</svg>