<?xml version="1.0" encoding="utf-8"?>
<svg version="1.1" xmlns:xlink="http://www.w3.org/1999/xlink" width="20px" height="18px" xmlns="http://www.w3.org/2000/svg">
  <g transform="matrix(1 0 0 1 -704 -230 )">
    <path d="M 18.3788546255507 6.41194029850746  C 18.3788546255507 9.95820895522388  15.5594713656388 12.8238805970149  12.0704845814978 12.8238805970149  C 8.58149779735683 12.8238805970149  5.76211453744493 9.95820895522388  5.76211453744493 6.41194029850746  C 5.76211453744493 2.86567164179104  8.58149779735683 0  12.0704845814978 0  C 15.5594713656388 0  18.3788546255507 2.86567164179104  18.3788546255507 6.41194029850746  Z M 16.9691629955947 6.41194029850746  C 16.9691629955947 3.65373134328358  14.784140969163 1.43283582089552  12.0704845814978 1.43283582089552  C 9.3568281938326 1.43283582089552  7.17180616740088 3.65373134328358  7.17180616740088 6.41194029850746  C 7.17180616740088 9.17014925373134  9.3568281938326 11.3910447761194  12.0704845814978 11.3910447761194  C 14.784140969163 11.3910447761194  16.9691629955947 9.17014925373134  16.9691629955947 6.41194029850746  Z M 5.69162995594714 11.4268656716418  C 5.62114537444934 11.7134328358209  5.33920704845815 11.9283582089552  5.05726872246696 11.9283582089552  C 4.98678414096916 11.9283582089552  4.91629955947137 11.9283582089552  4.84581497797357 11.8925373134328  C 2.76651982378855 11.1761194029851  1.3568281938326 9.20597014925373  1.3568281938326 6.98507462686567  C 1.3568281938326 5.12238805970149  2.34361233480176 3.40298507462686  3.9295154185022 2.47164179104478  C 4.28193832599119 2.29253731343283  4.70484581497797 2.4  4.88105726872247 2.75820895522388  C 5.05726872246696 3.11641791044776  4.95154185022026 3.54626865671642  4.59911894273128 3.72537313432836  C 3.43612334801762 4.40597014925373  2.73127753303965 5.62388059701493  2.73127753303965 6.98507462686567  C 2.73127753303965 8.59701492537313  3.75330396475771 10.0298507462687  5.23348017621145 10.5313432835821  C 5.58590308370044 10.6388059701493  5.79735682819383 11.0686567164179  5.69162995594714 11.4268656716418  Z M 19.7533039647577 17.7313432835821  C 19.647577092511 17.8388059701493  19.4713656387665 17.910447761194  19.295154185022 17.910447761194  C 19.1189427312775 17.910447761194  18.9074889867841 17.8388059701493  18.7665198237885 17.6955223880597  C 17.0044052863436 15.7970149253731  14.6079295154185 14.7582089552239  12.0352422907489 14.7582089552239  C 9.4625550660793 14.7582089552239  7.06607929515418 15.7970149253731  5.30396475770925 17.6955223880597  C 5.02202643171806 17.9820895522388  4.59911894273128 17.9820895522388  4.31718061674009 17.7313432835821  C 4.0352422907489 17.4805970149254  4.0352422907489 17.0149253731343  4.28193832599119 16.7283582089552  C 6.32599118942731 14.5432835820896  9.07488986784141 13.3253731343284  12.0352422907489 13.3253731343284  C 14.9955947136564 13.3253731343284  17.7444933920705 14.5432835820896  19.7885462555066 16.7283582089552  C 20.0704845814978 17.0149253731343  20.0352422907489 17.4805970149254  19.7533039647577 17.7313432835821  Z M 1.2511013215859 15.9044776119403  C 1.14537444933921 16.0477611940299  0.969162995594714 16.1194029850746  0.757709251101322 16.1194029850746  C 0.581497797356828 16.1194029850746  0.405286343612335 16.0477611940298  0.26431718061674 15.9402985074627  C -0.0176211453744493 15.6537313432836  -0.0176211453744493 15.2238805970149  0.229074889867842 14.9373134328358  C 1.56828193832599 13.5044776119403  3.36563876651982 12.5731343283582  5.30396475770925 12.3223880597015  C 5.69162995594714 12.2865671641791  6.04405286343613 12.5373134328358  6.07929515418502 12.9313432835821  C 6.11453744493392 13.3253731343284  5.86784140969163 13.6835820895522  5.48017621145374 13.7194029850746  C 3.85903083700441 13.934328358209  2.37885462555066 14.7223880597015  1.2511013215859 15.9044776119403  Z " fill-rule="nonzero" fill="#333333" stroke="none" transform="matrix(1 0 0 1 704 230 )" />
  </g>
</svg>