<?xml version="1.0" encoding="utf-8"?>
<svg version="1.1" xmlns:xlink="http://www.w3.org/1999/xlink" width="10px" height="10px" xmlns="http://www.w3.org/2000/svg">
  <g transform="matrix(1 0 0 1 -342 -268 )">
    <path d="M 9.51698791111111 6.36557646666667  C 10.1073005666667 5.77522366666667  10.1073005666667 4.81804776666667  9.51698791111111 4.22773511111111  L 5.73797541111111 0.448682477777778  C 5.45452634407361 0.165558660373784  5.07020403556288 0.00664922460540791  4.66957653333333 0.00692133333333326  L 1.5157568 0.00736285555555551  C 0.680841877777778 0.00736285555555551  0.0033490333333333 0.682327  0.0033490333333333 1.51720176666667  L 0.0033490333333333 4.66913501111111  C 0.00350515885438669 5.07008670486882  0.162897088970927 5.45456198070292  0.446474877777778 5.73801554444444  L 4.22681193333333 9.51847302222222  C 4.51024965797338 9.80192355086804  4.89468139404655 9.96116547613826  5.29553192222222 9.96116547613826  C 5.6963824503979 9.96116547613826  6.08081418647107 9.80192355086804  6.36425191111111 9.51847302222222  L 9.51698791111111 6.36557646666667  Z M 9.0143371 4.73022536666667  C 9.32727890901987 5.04300538802214  9.32742267277879 5.55024926233195  9.01465821111111 5.86320662222222  L 5.8619222 9.01610318888889  C 5.71175395059845 9.16630182147044  5.50806386018071 9.25068508922628  5.2956724 9.25068508922628  C 5.08328093981929 9.25068508922628  4.87959084940155 9.16630182147044  4.7294226 9.01610318888889  L 0.949286233333335 5.23564571111111  C 0.798807486464281 5.08546759939008  0.714106400742818 4.8816912489272  0.713795355555556 4.66909486666667  L 0.713795355555556 1.51720176666667  C 0.714259775407631 1.07557275099608  1.07240115321145 0.71780779888908  1.51403041307539 0.71780779888908  C 1.5145255979258 0.71780779888908  1.51502078266951 0.717808258518844  1.51551596666667 0.717809177777778  L 4.6693357 0.717367655555555  C 4.88157152828502 0.717056992891954  5.08520500633976 0.801225496674832  5.23528446666667 0.951293144444444  L 9.0143371 4.73022536666667  Z " fill-rule="nonzero" fill="#000000" stroke="none" transform="matrix(1 0 0 1 342 268 )" />
  </g>
</svg>