<?xml version="1.0" encoding="utf-8"?>
<svg version="1.1" xmlns:xlink="http://www.w3.org/1999/xlink" width="3px" height="3px" xmlns="http://www.w3.org/2000/svg">
  <g transform="matrix(1 0 0 1 -345 -271 )">
    <path d="M 2.95456597727273 1.52306128846154  C 2.95456597727273 0.707386465384615  2.30330071590909 0.046143426923077  1.50002565909091 0.046143426923077  C 0.6966685 0.046143426923077  0.0454442840909088 0.707386476923077  0.0454442840909088 1.52310297692308  C 0.0454442840909088 2.33881947692308  0.6966685 2.99997916153846  1.50002565909091 2.99997916153846  C 2.30338281818182 2.99997916153846  2.95456597727273 2.33873611153846  2.95456597727273 1.52306128846154  Z M 2.01475714772727 2.04571173461538  C 1.87823759188152 2.18435094459325  1.69306589906948 2.26223926886972  1.49998461370827 2.26223926886972  C 1.09795031705678 2.26223926886972  0.772037125071901 1.93131202777739  0.772037125071901 1.52309258810049  C 0.772037125071901 1.11487314842359  1.09795031705678 0.783945907331258  1.49998461370827 0.783945907331258  C 1.90201891035975 0.783945907331258  2.22793210234463 1.11487314842359  2.22793210234463 1.52309258810049  C 2.22844555595397 1.71922746980433  2.15166985114902 1.90741060666586  2.01471610227273 2.04571173461538  Z " fill-rule="nonzero" fill="#000000" stroke="none" transform="matrix(1 0 0 1 345 271 )" />
  </g>
</svg>