<?xml version="1.0" encoding="utf-8"?>
<svg version="1.1" xmlns:xlink="http://www.w3.org/1999/xlink" width="17px" height="17px" viewBox="596 159  17 17" xmlns="http://www.w3.org/2000/svg">
  <path d="M 604.5 159  C 609.26 159  613 162.74  613 167.5  C 613 172.26  609.26 176  604.5 176  C 599.74 176  596 172.26  596 167.5  C 596 162.74  599.74 159  604.5 159  Z " fill-rule="nonzero" fill="#ffffff" stroke="none" />
  <path d="M 604.5 159.5  C 608.98 159.5  612.5 163.02  612.5 167.5  C 612.5 171.98  608.98 175.5  604.5 175.5  C 600.02 175.5  596.5 171.98  596.5 167.5  C 596.5 163.02  600.02 159.5  604.5 159.5  Z " stroke-width="1" stroke="#797979" fill="none" />
  <path d="M 604.5 171.75  C 602.12 171.75  600.25 169.88  600.25 167.5  C 600.25 165.12  602.12 163.25  604.5 163.25  C 606.88 163.25  608.75 165.12  608.75 167.5  C 608.75 169.88  606.88 171.75  604.5 171.75  " fill-rule="nonzero" fill="#797979" stroke="none" />
</svg>