<?xml version="1.0" encoding="utf-8"?>
<svg version="1.1" xmlns:xlink="http://www.w3.org/1999/xlink" width="17px" height="17px" viewBox="389 159  17 17" xmlns="http://www.w3.org/2000/svg">
  <path d="M 397.5 159  C 402.26 159  406 162.74  406 167.5  C 406 172.26  402.26 176  397.5 176  C 392.74 176  389 172.26  389 167.5  C 389 162.74  392.74 159  397.5 159  Z " fill-rule="nonzero" fill="#f0f0f0" stroke="none" />
  <path d="M 397.5 159.5  C 401.98 159.5  405.5 163.02  405.5 167.5  C 405.5 171.98  401.98 175.5  397.5 175.5  C 393.02 175.5  389.5 171.98  389.5 167.5  C 389.5 163.02  393.02 159.5  397.5 159.5  Z " stroke-width="1" stroke="#797979" fill="none" />
  <path d="M 397.5 171.75  C 395.12 171.75  393.25 169.88  393.25 167.5  C 393.25 165.12  395.12 163.25  397.5 163.25  C 399.88 163.25  401.75 165.12  401.75 167.5  C 401.75 169.88  399.88 171.75  397.5 171.75  " fill-rule="nonzero" fill="#797979" stroke="none" />
</svg>