<?xml version="1.0" encoding="utf-8"?>
<svg version="1.1" xmlns:xlink="http://www.w3.org/1999/xlink" width="17px" height="17px" viewBox="222 159  17 17" xmlns="http://www.w3.org/2000/svg">
  <path d="M 230.5 159  C 235.26 159  239 162.74  239 167.5  C 239 172.26  235.26 176  230.5 176  C 225.74 176  222 172.26  222 167.5  C 222 162.74  225.74 159  230.5 159  Z " fill-rule="nonzero" fill="#f0f0f0" stroke="none" />
  <path d="M 230.5 159.5  C 234.98 159.5  238.5 163.02  238.5 167.5  C 238.5 171.98  234.98 175.5  230.5 175.5  C 226.02 175.5  222.5 171.98  222.5 167.5  C 222.5 163.02  226.02 159.5  230.5 159.5  Z " stroke-width="1" stroke="#797979" fill="none" />
  <path d="M 230.5 171.75  C 228.12 171.75  226.25 169.88  226.25 167.5  C 226.25 165.12  228.12 163.25  230.5 163.25  C 232.88 163.25  234.75 165.12  234.75 167.5  C 234.75 169.88  232.88 171.75  230.5 171.75  " fill-rule="nonzero" fill="#797979" stroke="none" />
</svg>