<?xml version="1.0" encoding="utf-8"?>
<svg version="1.1" xmlns:xlink="http://www.w3.org/1999/xlink" width="11px" height="11px" xmlns="http://www.w3.org/2000/svg">
  <g transform="matrix(1 0 0 1 -1152 -383 )">
    <path d="M 10.5090625097656 5.7453125  C 10.5090624951172 8.42072916992187  8.33239583984375 10.5975000048828  5.65677083984375 10.5975000048828  C 2.98125000488281 10.5975000048828  0.804583334960938 8.42083333496094  0.804583334960938 5.7453125  C 0.804583334960938 3.0696875  2.98125000488281 0.893020830078125  5.65677083984375 0.893020830078125  C 8.33239583984375 0.893020830078125  10.5090625097656 3.0696875  10.5090625097656 5.7453125  Z M 9.57156250976563 5.7453125  C 9.57156250976563 3.58666666015625  7.81541666503906 1.83052083007812  5.65677083984375 1.83052083007812  C 3.498125 1.83052083007812  1.74208333496094 3.58666666015625  1.74208333496094 5.7453125  C 1.74208333496094 7.90395833984375  3.498125 9.66000000488281  5.65677083984375 9.66000000488281  C 7.8154166796875 9.66000000488281  9.57156250976563 7.90395833984375  9.57156250976563 5.7453125  Z " fill-rule="nonzero" fill="#1296db" stroke="none" transform="matrix(1 0 0 1 1152 383 )" />
  </g>
</svg>