<?xml version="1.0" encoding="utf-8"?>
<svg version="1.1" xmlns:xlink="http://www.w3.org/1999/xlink" width="13px" height="13px" xmlns="http://www.w3.org/2000/svg">
  <g transform="matrix(1 0 0 1 -1152 -430 )">
    <path d="M 12.59375 8.84375  L 12.59375 3.21875  L 0.40625 3.21875  L 0.40625 8.84375  L 2.75 8.84375  L 2.75 12.125  L 10.25 12.125  L 10.25 8.84375  L 12.59375 8.84375  Z M 9.3125 6.96875  L 9.3125 11.1875  L 3.6875 11.1875  L 3.6875 6.96875  L 9.3125 6.96875  Z M 11.65625 4.15625  L 11.65625 7.90625  L 10.25 7.90625  L 10.25 6.03125  L 2.75 6.03125  L 2.75 7.90625  L 1.34375 7.90625  L 1.34375 4.15625  L 11.65625 4.15625  Z M 3.6875 2.75  L 3.6875 1.8125  L 9.3125 1.8125  L 9.3125 2.75  L 10.25 2.75  L 10.25 0.875  L 2.75 0.875  L 2.75 2.75  L 3.6875 2.75  Z " fill-rule="nonzero" fill="#378bfb" stroke="none" transform="matrix(1 0 0 1 1152 430 )" />
  </g>
</svg>