<?xml version="1.0" encoding="utf-8"?>
<svg version="1.1" xmlns:xlink="http://www.w3.org/1999/xlink" width="15px" height="15px" xmlns="http://www.w3.org/2000/svg">
  <g transform="matrix(1 0 0 1 -1152 -165 )">
    <path d="M 8.10267857142857 0.602678571428572  L 8.10267857142857 6.89732142857143  L 14.3973214285714 6.89732142857143  C 14.7301674107143 6.89732142857143  15 7.16715401785714  15 7.5  C 15 7.83284598214286  14.7301674107143 8.10267857142857  14.3973214285714 8.10267857142857  L 8.10267857142857 8.10267857142857  L 8.10267857142857 14.3973214285714  C 8.10267857142857 14.7301674107143  7.83284598214286 15  7.5 15  C 7.16715401785714 15  6.89732142857143 14.7301674107143  6.89732142857143 14.3973214285714  L 6.89732142857143 8.10267857142857  L 0.602678571428572 8.10267857142857  C 0.269832589285714 8.10267857142857  0 7.83284598214286  0 7.5  C 0 7.16715401785714  0.269832589285714 6.89732142857143  0.602678571428572 6.89732142857143  L 6.89732142857143 6.89732142857143  L 6.89732142857143 0.602678571428572  C 6.89732142857143 0.269832589285714  7.16715401785714 0  7.5 0  C 7.83284598214286 0  8.10267857142857 0.269832589285714  8.10267857142857 0.602678571428572  Z " fill-rule="nonzero" fill="#bfbfbf" stroke="none" transform="matrix(1 0 0 1 1152 165 )" />
  </g>
</svg>