<?xml version="1.0" encoding="utf-8"?>
<svg version="1.1" xmlns:xlink="http://www.w3.org/1999/xlink" width="15px" height="19px" xmlns="http://www.w3.org/2000/svg">
  <g transform="matrix(1 0 0 1 -1152 -332 )">
    <path d="M 14.9901917696629 8.97987111555556  C 14.9901486446629 7.65434622777778  13.9178329845506 6.57978488777778  12.595051622191 6.57978488777778  L 12.2271572401685 6.57978488777778  L 12.2271572401685 4.81342649666667  C 12.2271572401685 3.56206513222222  11.7504359620787 2.38134602111111  10.8848439606742 1.48879106444444  C 9.9964216011236 0.57268869  8.79139230337078 0.068190788888889  7.49176468398876 0.068190788888889  C 4.83641445926966 0.068190788888889  2.75639370084269 2.15252566444445  2.75639370084269 4.8134049  L 2.75639370084269 6.57976329111111  L 2.40496995084269 6.57976329111111  C 1.08218858848314 6.57976329111111  0.00985137640449144 7.65432463111111  0.00985137640449144 8.97984951888889  L 0.00985135533707876 16.5291932177778  C 0.00985135533707876 17.8547181266667  1.08218858848315 18.9292794455556  2.40496992977528 19  L 12.5950731741573 19  C 13.9178545365169 18.9292794455556  14.9901917485955 17.8547181055556  14.9901917485955 16.5291932177778  L 14.9901917696629 8.97987111555556  Z M 3.62731061797753 6.57980648444445  L 3.62731061797753 4.81344809333333  C 3.62731061797753 2.64198778888889  5.32477725421348 0.940978863333333  7.49174311095506 0.940978863333333  C 8.55403411516854 0.940978863333333  9.53724884831461 1.35154635888889  10.2602319101124 2.09707040666667  C 10.9669814957865 2.82580882  11.3561971558989 3.79049662222222  11.3561971558989 4.81344807222222  L 11.3561971558989 6.57980646333333  L 3.62731061797753 6.57980648444445  Z M 14.1192101544944 8.97987111555556  L 14.1192101544944 16.5291932177778  C 14.1192101544944 17.3727090688889  13.4368215800562 18.0565129677778  12.595051622191 18  L 2.40494837780899 18  C 1.56317841994382 18.0565129677778  0.880789845505618 17.3727090688889  0.880789845505618 16.5291932177778  L 0.880789845505618 8.97987111555556  C 0.880789845505618 8.13635526444445  1.56317841994382 7.45255136555556  2.40494837780899 7.45255136555556  L 12.595051622191 7.45255136555556  C 13.4368215800562 7.45255136555556  14.1192101544944 8.13635526444445  14.1192101544944 8.97987111555556  Z " fill-rule="nonzero" fill="#1e9fff" stroke="none" transform="matrix(1 0 0 1 1152 332 )" />
  </g>
</svg>