<?xml version="1.0" encoding="utf-8"?>
<svg version="1.1" xmlns:xlink="http://www.w3.org/1999/xlink" width="13px" height="13px" xmlns="http://www.w3.org/2000/svg">
  <g transform="matrix(1 0 0 1 -1153 -251 )">
    <path d="M 12.828125 4.89125  C 12.8280719024323 4.64262986236361  12.7292650388853 4.40421193564762  12.5534375 4.2284375  L 8.7715625 0.4465625  C 8.59578806435238 0.270734961114733  8.35737013763639 0.171928097567651  8.10875 0.171875  L 1.109375 0.171875  C 0.591608047033631 0.171875  0.171875 0.591608047033631  0.171875 1.109375  L 0.171875 11.890625  C 0.171875 12.4083919529664  0.591608047033631 12.828125  1.109375 12.828125  L 11.890625 12.828125  C 12.4083919529664 12.828125  12.828125 12.4083919529664  12.828125 11.890625  L 12.828125 4.89125  Z M 3.21875 2.75  L 3.21875 1.109375  L 6.03125 1.109375  L 6.03125 2.75  L 3.21875 2.75  Z M 9.78125 9.78125  L 9.78125 11.890625  L 3.21875 11.890625  L 3.21875 9.78125  L 9.78125 9.78125  Z M 11.890625 4.89125  L 11.890625 11.890625  L 10.71875 11.890625  L 10.71875 9.3125  C 10.71875 9.05361652351682  10.5088834764832 8.84375  10.25 8.84375  L 2.75 8.84375  C 2.49111652351682 8.84375  2.28125 9.05361652351682  2.28125 9.3125  L 2.28125 11.890625  L 1.109375 11.890625  L 1.109375 1.109375  L 2.28125 1.109375  L 2.28125 3.21875  C 2.28125 3.47763347648318  2.49111652351682 3.6875  2.75 3.6875  L 6.5 3.6875  C 6.75888347648318 3.6875  6.96875 3.47763347648318  6.96875 3.21875  L 6.96875 1.109375  L 8.10875 1.109375  L 11.890625 4.89125  Z " fill-rule="nonzero" fill="#bfbfbf" stroke="none" transform="matrix(1 0 0 1 1153 251 )" />
  </g>
</svg>