<?xml version="1.0" encoding="utf-8"?>
<svg version="1.1" xmlns:xlink="http://www.w3.org/1999/xlink" width="15px" height="15px" xmlns="http://www.w3.org/2000/svg">
  <g transform="matrix(1 0 0 1 -1152 -291 )">
    <path d="M 14.7352941176471 7.5  C 14.7352941176471 3.60882352941176  11.5676470588235 0.441176470588236  7.67647058823529 0.441176470588236  C 3.78529411764706 0.441176470588236  0.617647058823529 3.60882352941176  0.617647058823529 7.5  C 0.617647058823529 11.3911764705882  3.78529411764706 14.5588235294118  7.67647058823529 14.5588235294118  C 11.5676470588235 14.5588235294118  14.7352941176471 11.3911764705882  14.7352941176471 7.5  Z M 13.6764705882353 7.5  C 13.6764705882353 10.7911764705882  10.9676470588235 13.5  7.67647058823529 13.5  C 4.38529411764706 13.5  1.67647058823529 10.7911764705882  1.67647058823529 7.5  C 1.67647058823529 4.20882352941176  4.38529411764706 1.5  7.67647058823529 1.5  C 10.9676470588235 1.5  13.6764705882353 4.20882352941176  13.6764705882353 7.5  Z " fill-rule="nonzero" fill="#bfbfbf" stroke="none" transform="matrix(1 0 0 1 1152 291 )" />
  </g>
</svg>