<?xml version="1.0" encoding="utf-8"?>
<svg version="1.1" xmlns:xlink="http://www.w3.org/1999/xlink" width="15px" height="15px" xmlns="http://www.w3.org/2000/svg">
  <g transform="matrix(1 0 0 1 -1152 -478 )">
    <path d="M 14.64111328125 7.49653764204545  C 14.64111328125 3.54771839488636  11.44189453125 0.34676846590909  7.49134410511364 0.346768465909091  C 3.54252485795455 0.346768465909091  0.341574928977273 3.54771839488636  0.341574928977273 7.49653764204546  C 0.341574928977273 11.4453568892045  3.54252485795455 14.6463068181818  7.49134410511364 14.6463068181818  C 11.4401633522727 14.6463068181818  14.64111328125 11.4453568892045  14.64111328125 7.49653764204545  Z M 8.09206321022727 10.9727450284091  C 8.09206321022727 11.4401633522727  7.71985973011364 11.8175603693182  7.26282848011364 11.8175603693182  C 6.80579723011364 11.8175603693182  6.43359375 11.4384321732955  6.43359375 10.9727450284091  C 6.43359375 10.5053267045455  6.80406605113636 10.1279296875  7.26282848011364 10.1279296875  C 7.71985973011364 10.1279296875  8.09206321022727 10.5053267045455  8.09206321022727 10.9727450284091  Z M 9.7470703125 5.74631569602273  C 9.74880149147727 6.03542258522728  9.69340376420454 6.28990589488637  9.57741477272727 6.509765625  C 9.46142578125 6.72789417613637  9.328125 6.91659268465909  9.16885653409091 7.07412997159091  C 9.01131924715909 7.2333984375  8.72913707386364 7.5  8.32057883522727 7.87393465909091  C 8.20805220170455 7.97953657670455  8.11803089488636 8.07302024147727  8.05051491477273 8.15265447443182  C 7.98299893465909 8.23228870738636  7.93279474431818 8.30672940340909  7.89817116477273 8.37251420454546  C 7.86527876420455 8.43829900568182  7.83931107954545 8.50581498579546  7.82199928977273 8.57333096590909  C 7.8046875 8.64084694602273  7.77698863636364 8.7568359375  7.74063387784091 8.92302911931819  C 7.67831143465909 9.27792080965909  7.47922585227273 9.45450106534091  7.14857066761364 9.45450106534091  C 6.97545276988636 9.45450106534091  6.83176491477273 9.39737215909091  6.71404474431818 9.27965198863637  C 6.59632457386364 9.16366299715909  6.53746448863636 8.99227627840909  6.53746448863636 8.76202947443182  C 6.53746448863636 8.47638494318182  6.58074396306818 8.22709517045455  6.66730291193182 8.01762251420455  C 6.75386186079545 7.80814985795455  6.86811967329546 7.62464488636364  7.01007634943182 7.46537642045455  C 7.15203302556818 7.30783913352273  7.34419389204546 7.11740944602273  7.58655894886364 6.90101207386364  C 7.79949396306818 6.71058238636364  7.95183771306818 6.56689453125  8.04532137784091 6.46821732954546  C 8.14053622159091 6.37127130681819  8.22017045454545 6.26393821022728  8.28422407670455 6.14275568181819  C 8.34827769886364 6.02330433238637  8.38117009943182 5.89519708806819  8.38117009943182 5.75324041193182  C 8.38117009943182 5.4814453125  8.28249289772727 5.25119850852273  8.08513849431818 5.06423117897728  C 7.88778409090909 4.87726384943182  7.63330078125 4.78204900568182  7.32168856534091 4.78204900568182  C 6.95640980113636 4.78204900568182  6.68807705965909 4.87726384943182  6.51669034090909 5.06596235795455  C 6.34357244318182 5.25466086647728  6.19815340909091 5.53338068181818  6.08043323863636 5.900390625  C 5.96790660511363 6.28644353693182  5.75324041193182 6.47860440340909  5.43816583806818 6.47860440340909  C 5.2529296875 6.47860440340909  5.09539240056818 6.41108842329546  4.96728515625 6.27778764204546  C 4.83917791193182 6.14275568181818  4.77512428977273 5.99733664772727  4.77512428977273 5.84153053977273  C 4.77512428977273 5.51780007102273  4.87553267045454 5.19060724431818  5.07808061079545 4.85822088068182  C 5.27889737215909 4.52583451704546  5.57492897727273 4.25057705965909  5.96271306818182 4.03244850852273  C 6.35049715909091 3.81431995738637  6.80233487215909 3.70525568181818  7.31995738636363 3.70525568181818  C 7.79949396306818 3.70525568181818  8.22536399147727 3.79700816761364  8.59237393465909 3.97878196022728  C 8.96111505681818 4.16055575284091  9.24502840909091 4.40984552556818  9.44584517045454 4.72318892045455  C 9.64666193181818 5.03653231534091  9.7470703125 5.37757457386364  9.7470703125 5.74631569602273  Z " fill-rule="nonzero" fill="#378bfb" stroke="none" transform="matrix(1 0 0 1 1152 478 )" />
  </g>
</svg>