<?xml version="1.0" encoding="utf-8"?>
<svg version="1.1" xmlns:xlink="http://www.w3.org/1999/xlink" width="13px" height="9px" xmlns="http://www.w3.org/2000/svg">
  <g transform="matrix(1 0 0 1 -1152 -128 )">
    <path d="M 12.9873169591481 5.93408751086474  C 12.9873169464652 7.20227657694013  11.8950444390727 8.23387180310421  10.5522485663195 8.23387180310421  L 2.43517222794954 8.23387180310421  C 1.0923244312944 8.23387180310421  0 7.20227657694013  0 5.93408751086474  L 0 1.33440865144124  C 0 0.910661958758315  0.363026543775351 0.567797555654102  0.811624565740248 0.567797555654102  C 1.26035237209412 0.567797555654102  1.62341786513739 0.910661970731707  1.62341786513739 1.33440865144124  L 1.62341786513739 5.93408751086474  C 1.62341786513739 6.35632707671841  1.98727507719732 6.70064959955654  2.43517222794954 6.70064959955654  L 10.5522485663195 6.70064959955654  C 11.0001457170718 6.70064959955654  11.3639769671807 6.35632707671841  11.3639769671807 5.93408751086474  L 11.3639769671807 1.33440865144124  C 11.3639769671807 0.910661958758315  11.726990536322 0.567797555654102  12.1757313299929 0.567797555654102  C 12.6243293519578 0.567797555654102  12.9873169591481 0.910661970731707  12.9873169591481 1.33440865144124  L 12.9873169591481 5.93408751086474  Z " fill-rule="nonzero" fill="#4c4b4b" stroke="none" fill-opacity="0.192156862745098" transform="matrix(1 0 0 1 1152 128 )" />
  </g>
</svg>